<svg xmlns="http://www.w3.org/2000/svg" width="287" height="282" viewBox="162 63 287 282">
<g>
<path d="M 314.00 344.00 C314.00,343.45 314.45,343.00 315.00,343.00 C315.55,343.00 316.00,343.45 316.00,344.00 C316.00,344.55 315.55,345.00 315.00,345.00 C314.45,345.00 314.00,344.55 314.00,344.00 ZM 297.50 340.00 C297.16,339.45 297.36,339.00 297.94,339.00 C298.52,339.00 299.00,339.45 299.00,340.00 C299.00,340.55 298.80,341.00 298.56,341.00 C298.32,341.00 297.84,340.55 297.50,340.00 ZM 331.00 340.00 C331.00,339.45 331.45,339.00 332.00,339.00 C332.55,339.00 333.00,339.45 333.00,340.00 C333.00,340.55 332.55,341.00 332.00,341.00 C331.45,341.00 331.00,340.55 331.00,340.00 ZM 266.00 339.00 C266.00,338.45 266.45,338.00 267.00,338.00 C267.55,338.00 268.00,338.45 268.00,339.00 C268.00,339.55 267.55,340.00 267.00,340.00 C266.45,340.00 266.00,339.55 266.00,339.00 ZM 320.51 338.98 C320.86,338.42 321.56,338.23 322.07,338.54 C323.46,339.40 323.20,340.00 321.44,340.00 C320.58,340.00 320.16,339.54 320.51,338.98 ZM 335.50 338.00 C335.16,337.45 335.36,337.00 335.94,337.00 C336.52,337.00 337.00,337.45 337.00,338.00 C337.00,338.55 336.80,339.00 336.56,339.00 C336.32,339.00 335.84,338.55 335.50,338.00 ZM 313.53 337.04 C313.20,336.52 312.28,336.34 311.47,336.65 C310.66,336.96 310.00,336.66 310.00,335.99 C310.00,335.21 310.81,334.98 312.25,335.37 C313.49,335.70 314.84,335.98 315.25,335.99 C316.35,336.01 316.17,338.00 315.06,338.00 C314.54,338.00 313.85,337.57 313.53,337.04 ZM 274.50 336.00 C274.16,335.45 274.36,335.00 274.94,335.00 C275.52,335.00 276.00,335.45 276.00,336.00 C276.00,336.55 275.80,337.00 275.56,337.00 C275.32,337.00 274.84,336.55 274.50,336.00 ZM 295.00 336.00 C295.00,335.45 295.45,335.00 296.00,335.00 C296.55,335.00 297.00,335.45 297.00,336.00 C297.00,336.55 296.55,337.00 296.00,337.00 C295.45,337.00 295.00,336.55 295.00,336.00 ZM 304.00 336.00 C304.00,335.45 304.45,335.00 305.00,335.00 C305.55,335.00 306.00,335.45 306.00,336.00 C306.00,336.55 305.55,337.00 305.00,337.00 C304.45,337.00 304.00,336.55 304.00,336.00 ZM 323.50 336.00 C323.84,335.45 324.32,335.00 324.56,335.00 C324.80,335.00 325.00,335.45 325.00,336.00 C325.00,336.55 324.52,337.00 323.94,337.00 C323.36,337.00 323.16,336.55 323.50,336.00 ZM 291.00 335.06 C291.00,334.54 291.45,333.84 292.00,333.50 C292.55,333.16 293.00,333.58 293.00,334.44 C293.00,335.30 292.55,336.00 292.00,336.00 C291.45,336.00 291.00,335.58 291.00,335.06 ZM 300.00 335.00 C300.00,334.45 300.45,334.00 301.00,334.00 C301.55,334.00 302.00,334.45 302.00,335.00 C302.00,335.55 301.55,336.00 301.00,336.00 C300.45,336.00 300.00,335.55 300.00,335.00 ZM 327.58 335.13 C327.15,334.44 327.07,333.60 327.40,333.27 C328.29,332.37 329.27,333.69 328.79,335.14 C328.45,336.15 328.21,336.15 327.58,335.13 ZM 250.50 334.00 C250.16,333.45 250.36,333.00 250.94,333.00 C251.52,333.00 252.00,333.45 252.00,334.00 C252.00,334.55 251.80,335.00 251.56,335.00 C251.32,335.00 250.84,334.55 250.50,334.00 ZM 286.00 334.00 C286.00,333.45 286.45,333.00 287.00,333.00 C287.55,333.00 288.00,333.45 288.00,334.00 C288.00,334.55 287.55,335.00 287.00,335.00 C286.45,335.00 286.00,334.55 286.00,334.00 ZM 331.50 334.00 C331.16,333.45 331.58,333.00 332.44,333.00 C333.30,333.00 334.00,333.45 334.00,334.00 C334.00,334.55 333.58,335.00 333.06,335.00 C332.54,335.00 331.84,334.55 331.50,334.00 ZM 336.55 334.09 C336.23,333.56 336.39,332.87 336.91,332.55 C337.44,332.23 338.13,332.39 338.45,332.91 C338.77,333.44 338.61,334.13 338.09,334.45 C337.56,334.77 336.87,334.61 336.55,334.09 ZM 349.00 334.00 C349.00,333.45 349.45,333.00 350.00,333.00 C350.55,333.00 351.00,333.45 351.00,334.00 C351.00,334.55 350.55,335.00 350.00,335.00 C349.45,335.00 349.00,334.55 349.00,334.00 ZM 281.54 333.07 C280.86,331.96 282.44,330.77 283.36,331.69 C284.31,332.64 284.13,334.00 283.06,334.00 C282.54,334.00 281.86,333.58 281.54,333.07 ZM 354.50 333.00 C354.84,332.45 355.32,332.00 355.56,332.00 C355.80,332.00 356.00,332.45 356.00,333.00 C356.00,333.55 355.52,334.00 354.94,334.00 C354.36,334.00 354.16,333.55 354.50,333.00 ZM 277.50 332.00 C277.16,331.45 277.33,331.00 277.88,331.00 C278.43,331.00 279.16,331.45 279.50,332.00 C279.84,332.55 279.67,333.00 279.12,333.00 C278.57,333.00 277.84,332.55 277.50,332.00 ZM 293.58 332.13 C293.15,331.44 293.07,330.60 293.40,330.27 C294.29,329.37 295.27,330.69 294.79,332.14 C294.45,333.15 294.21,333.15 293.58,332.13 ZM 297.00 331.58 C297.00,330.71 297.71,330.00 298.58,330.00 C299.45,330.00 299.99,330.53 299.77,331.19 C299.15,333.04 297.00,333.35 297.00,331.58 ZM 302.19 331.92 C302.39,331.33 302.98,330.85 303.50,330.85 C304.02,330.85 304.61,331.33 304.81,331.92 C305.01,332.52 304.42,333.00 303.50,333.00 C302.58,333.00 301.99,332.52 302.19,331.92 ZM 307.00 332.00 C307.00,331.45 307.45,331.00 308.00,331.00 C308.55,331.00 309.00,331.45 309.00,332.00 C309.00,332.55 308.55,333.00 308.00,333.00 C307.45,333.00 307.00,332.55 307.00,332.00 ZM 311.00 332.00 C311.00,331.45 311.45,331.00 312.00,331.00 C312.55,331.00 313.00,331.45 313.00,332.00 C313.00,332.55 312.55,333.00 312.00,333.00 C311.45,333.00 311.00,332.55 311.00,332.00 ZM 315.00 332.00 C315.00,331.45 315.45,331.00 316.00,331.00 C316.55,331.00 317.00,331.45 317.00,332.00 C317.00,332.55 316.55,333.00 316.00,333.00 C315.45,333.00 315.00,332.55 315.00,332.00 ZM 319.55 332.09 C319.23,331.56 319.39,330.87 319.91,330.55 C320.44,330.23 321.13,330.39 321.45,330.91 C321.77,331.44 321.61,332.13 321.09,332.45 C320.56,332.77 319.87,332.61 319.55,332.09 ZM 324.64 332.31 C323.51,331.18 323.95,330.00 325.50,330.00 C326.33,330.00 327.00,330.42 327.00,330.94 C327.00,332.20 325.44,333.11 324.64,332.31 ZM 341.00 332.00 C341.00,331.45 341.45,331.00 342.00,331.00 C342.55,331.00 343.00,331.45 343.00,332.00 C343.00,332.55 342.55,333.00 342.00,333.00 C341.45,333.00 341.00,332.55 341.00,332.00 ZM 256.54 331.07 C256.23,330.56 256.42,329.86 256.98,329.51 C257.54,329.16 258.00,329.58 258.00,330.44 C258.00,332.20 257.40,332.46 256.54,331.07 ZM 274.00 331.06 C274.00,330.54 274.45,329.84 275.00,329.50 C275.55,329.16 276.00,329.58 276.00,330.44 C276.00,331.30 275.55,332.00 275.00,332.00 C274.45,332.00 274.00,331.58 274.00,331.06 ZM 289.00 330.50 C289.00,329.67 289.45,329.00 290.00,329.00 C290.55,329.00 291.00,329.67 291.00,330.50 C291.00,331.33 290.55,332.00 290.00,332.00 C289.45,332.00 289.00,331.33 289.00,330.50 ZM 329.00 330.50 C329.00,329.67 329.45,329.00 330.00,329.00 C330.55,329.00 331.00,329.67 331.00,330.50 C331.00,331.33 330.55,332.00 330.00,332.00 C329.45,332.00 329.00,331.33 329.00,330.50 ZM 284.54 330.07 C283.86,328.96 285.44,327.77 286.36,328.69 C287.31,329.64 287.13,331.00 286.06,331.00 C285.54,331.00 284.86,330.58 284.54,330.07 ZM 333.54 330.07 C332.86,328.96 334.44,327.77 335.36,328.69 C336.31,329.64 336.13,331.00 335.06,331.00 C334.54,331.00 333.86,330.58 333.54,330.07 ZM 345.00 330.00 C345.00,329.45 345.45,329.00 346.00,329.00 C346.55,329.00 347.00,329.45 347.00,330.00 C347.00,330.55 346.55,331.00 346.00,331.00 C345.45,331.00 345.00,330.55 345.00,330.00 ZM 265.00 329.00 C265.00,328.45 265.45,328.00 266.00,328.00 C266.55,328.00 267.00,328.45 267.00,329.00 C267.00,329.55 266.55,330.00 266.00,330.00 C265.45,330.00 265.00,329.55 265.00,329.00 ZM 268.00 329.00 C268.00,328.45 268.67,328.00 269.50,328.00 C270.33,328.00 271.00,328.45 271.00,329.00 C271.00,329.55 270.33,330.00 269.50,330.00 C268.67,330.00 268.00,329.55 268.00,329.00 ZM 280.52 329.04 C279.68,327.67 280.43,326.64 281.91,327.15 C282.51,327.35 282.59,328.06 282.09,328.86 C281.47,329.86 281.06,329.91 280.52,329.04 ZM 338.00 328.50 C338.00,327.67 338.45,327.00 339.00,327.00 C339.55,327.00 340.00,327.67 340.00,328.50 C340.00,329.33 339.55,330.00 339.00,330.00 C338.45,330.00 338.00,329.33 338.00,328.50 ZM 350.00 329.00 C350.00,328.45 350.45,328.00 351.00,328.00 C351.55,328.00 352.00,328.45 352.00,329.00 C352.00,329.55 351.55,330.00 351.00,330.00 C350.45,330.00 350.00,329.55 350.00,329.00 ZM 252.00 328.00 C252.00,327.45 252.45,327.00 253.00,327.00 C253.55,327.00 254.00,327.45 254.00,328.00 C254.00,328.55 253.55,329.00 253.00,329.00 C252.45,329.00 252.00,328.55 252.00,328.00 ZM 354.00 328.00 C354.00,327.45 354.45,327.00 355.00,327.00 C355.55,327.00 356.00,327.45 356.00,328.00 C356.00,328.55 355.55,329.00 355.00,329.00 C354.45,329.00 354.00,328.55 354.00,328.00 ZM 260.50 327.00 C260.16,326.45 260.58,326.00 261.44,326.00 C262.30,326.00 263.00,326.45 263.00,327.00 C263.00,327.55 262.58,328.00 262.06,328.00 C261.54,328.00 260.84,327.55 260.50,327.00 ZM 275.50 327.00 C275.84,326.45 276.54,326.00 277.06,326.00 C277.58,326.00 278.00,326.45 278.00,327.00 C278.00,327.55 277.30,328.00 276.44,328.00 C275.58,328.00 275.16,327.55 275.50,327.00 ZM 341.50 327.00 C341.84,326.45 342.32,326.00 342.56,326.00 C342.80,326.00 343.00,326.45 343.00,327.00 C343.00,327.55 342.52,328.00 341.94,328.00 C341.36,328.00 341.16,327.55 341.50,327.00 ZM 359.00 327.00 C359.00,326.45 359.45,326.00 360.00,326.00 C360.55,326.00 361.00,326.45 361.00,327.00 C361.00,327.55 360.55,328.00 360.00,328.00 C359.45,328.00 359.00,327.55 359.00,327.00 ZM 240.50 326.00 C240.84,325.45 241.32,325.00 241.56,325.00 C241.80,325.00 242.00,325.45 242.00,326.00 C242.00,326.55 241.52,327.00 240.94,327.00 C240.36,327.00 240.16,326.55 240.50,326.00 ZM 256.00 325.56 C256.00,324.70 256.45,324.00 257.00,324.00 C257.55,324.00 258.00,324.42 258.00,324.94 C258.00,325.46 257.55,326.16 257.00,326.50 C256.45,326.84 256.00,326.42 256.00,325.56 ZM 272.58 326.13 C272.15,325.44 272.07,324.60 272.40,324.27 C273.29,323.37 274.27,324.69 273.79,326.14 C273.45,327.15 273.21,327.15 272.58,326.13 ZM 345.00 326.00 C345.00,325.45 345.67,325.00 346.50,325.00 C347.33,325.00 348.00,325.45 348.00,326.00 C348.00,326.55 347.33,327.00 346.50,327.00 C345.67,327.00 345.00,326.55 345.00,326.00 ZM 350.00 325.56 C350.00,324.70 350.45,324.00 351.00,324.00 C351.55,324.00 352.00,324.42 352.00,324.94 C352.00,325.46 351.55,326.16 351.00,326.50 C350.45,326.84 350.00,326.42 350.00,325.56 ZM 267.19 324.92 C267.39,324.33 267.98,323.85 268.50,323.85 C269.02,323.85 269.61,324.33 269.81,324.92 C270.01,325.52 269.42,326.00 268.50,326.00 C267.58,326.00 266.99,325.52 267.19,324.92 ZM 363.00 325.00 C363.00,324.45 363.45,324.00 364.00,324.00 C364.55,324.00 365.00,324.45 365.00,325.00 C365.00,325.55 364.55,326.00 364.00,326.00 C363.45,326.00 363.00,325.55 363.00,325.00 ZM 245.50 324.00 C245.16,323.45 245.61,323.00 246.50,323.00 C247.39,323.00 247.84,323.45 247.50,324.00 C247.16,324.55 246.71,325.00 246.50,325.00 C246.29,325.00 245.84,324.55 245.50,324.00 ZM 263.00 323.50 C263.00,322.58 263.48,321.99 264.08,322.19 C264.67,322.39 265.15,322.98 265.15,323.50 C265.15,324.02 264.67,324.61 264.08,324.81 C263.48,325.01 263.00,324.42 263.00,323.50 ZM 252.00 323.00 C252.00,322.45 252.68,322.00 253.50,322.00 C254.32,322.00 255.00,322.45 255.00,323.00 C255.00,323.55 254.32,324.00 253.50,324.00 C252.68,324.00 252.00,323.55 252.00,323.00 ZM 354.00 323.00 C354.00,322.45 354.42,322.00 354.94,322.00 C355.46,322.00 356.16,322.45 356.50,323.00 C356.84,323.55 356.42,324.00 355.56,324.00 C354.70,324.00 354.00,323.55 354.00,323.00 ZM 367.00 323.00 C367.00,322.45 367.45,322.00 368.00,322.00 C368.55,322.00 369.00,322.45 369.00,323.00 C369.00,323.55 368.55,324.00 368.00,324.00 C367.45,324.00 367.00,323.55 367.00,323.00 ZM 241.00 322.00 C241.00,321.45 241.48,321.00 242.06,321.00 C242.64,321.00 242.84,321.45 242.50,322.00 C242.16,322.55 241.68,323.00 241.44,323.00 C241.20,323.00 241.00,322.55 241.00,322.00 ZM 258.50 322.00 C258.84,321.45 259.54,321.00 260.06,321.00 C260.58,321.00 261.00,321.45 261.00,322.00 C261.00,322.55 260.30,323.00 259.44,323.00 C258.58,323.00 258.16,322.55 258.50,322.00 ZM 358.00 322.00 C358.00,321.45 358.45,321.00 359.00,321.00 C359.55,321.00 360.00,321.45 360.00,322.00 C360.00,322.55 359.55,323.00 359.00,323.00 C358.45,323.00 358.00,322.55 358.00,322.00 ZM 248.00 320.50 C248.00,319.58 248.48,318.99 249.07,319.19 C249.67,319.39 250.15,319.98 250.15,320.50 C250.15,321.02 249.67,321.61 249.07,321.81 C248.48,322.01 248.00,321.42 248.00,320.50 ZM 370.50 321.00 C370.16,320.45 370.61,320.00 371.50,320.00 C372.39,320.00 372.84,320.45 372.50,321.00 C372.16,321.55 371.71,322.00 371.50,322.00 C371.29,322.00 370.84,321.55 370.50,321.00 ZM 255.00 319.50 C255.00,318.67 255.45,318.00 256.00,318.00 C256.55,318.00 257.00,318.67 257.00,319.50 C257.00,320.33 256.55,321.00 256.00,321.00 C255.45,321.00 255.00,320.33 255.00,319.50 ZM 362.00 320.00 C362.00,319.45 362.45,319.00 363.00,319.00 C363.55,319.00 364.00,319.45 364.00,320.00 C364.00,320.55 363.55,321.00 363.00,321.00 C362.45,321.00 362.00,320.55 362.00,320.00 ZM 236.50 319.00 C236.84,318.45 237.32,318.00 237.56,318.00 C237.80,318.00 238.00,318.45 238.00,319.00 C238.00,319.55 237.52,320.00 236.94,320.00 C236.36,320.00 236.16,319.55 236.50,319.00 ZM 244.19 318.92 C244.39,318.33 244.94,318.00 245.41,318.17 C245.88,318.35 246.67,317.41 247.17,316.08 C247.87,314.17 248.32,313.92 249.28,314.88 C250.24,315.85 249.97,316.52 248.00,318.03 C245.21,320.18 243.65,320.55 244.19,318.92 ZM 375.54 319.07 C375.23,318.56 375.42,317.86 375.98,317.51 C376.54,317.16 377.00,317.58 377.00,318.44 C377.00,320.20 376.40,320.46 375.54,319.07 ZM 240.19 317.92 C240.39,317.33 240.98,316.85 241.50,316.85 C242.02,316.85 242.61,317.33 242.81,317.92 C243.01,318.52 242.42,319.00 241.50,319.00 C240.58,319.00 239.99,318.52 240.19,317.92 ZM 251.00 318.00 C251.00,317.45 251.45,317.00 252.00,317.00 C252.55,317.00 253.00,317.45 253.00,318.00 C253.00,318.55 252.55,319.00 252.00,319.00 C251.45,319.00 251.00,318.55 251.00,318.00 ZM 366.00 318.00 C366.00,317.45 366.45,317.00 367.00,317.00 C367.55,317.00 368.00,317.45 368.00,318.00 C368.00,318.55 367.55,319.00 367.00,319.00 C366.45,319.00 366.00,318.55 366.00,318.00 ZM 232.00 317.00 C232.00,316.45 232.45,316.00 233.00,316.00 C233.55,316.00 234.00,316.45 234.00,317.00 C234.00,317.55 233.55,318.00 233.00,318.00 C232.45,318.00 232.00,317.55 232.00,317.00 ZM 379.00 316.44 C379.00,315.58 379.46,315.16 380.02,315.51 C380.58,315.86 380.77,316.56 380.46,317.07 C379.60,318.46 379.00,318.20 379.00,316.44 ZM 369.00 316.00 C369.00,315.45 369.67,315.00 370.50,315.00 C371.33,315.00 372.00,315.45 372.00,316.00 C372.00,316.55 371.33,317.00 370.50,317.00 C369.67,317.00 369.00,316.55 369.00,316.00 ZM 243.64 315.31 C242.51,314.18 242.95,313.00 244.50,313.00 C245.32,313.00 246.00,313.42 246.00,313.94 C246.00,315.20 244.44,316.11 243.64,315.31 ZM 227.00 314.00 C227.00,313.45 227.48,313.00 228.06,313.00 C228.64,313.00 228.84,313.45 228.50,314.00 C228.16,314.55 227.68,315.00 227.44,315.00 C227.20,315.00 227.00,314.55 227.00,314.00 ZM 237.00 314.00 C237.00,313.45 237.45,313.00 238.00,313.00 C238.55,313.00 239.00,313.45 239.00,314.00 C239.00,314.55 238.55,315.00 238.00,315.00 C237.45,315.00 237.00,314.55 237.00,314.00 ZM 374.00 314.00 C374.00,313.45 374.45,313.00 375.00,313.00 C375.55,313.00 376.00,313.45 376.00,314.00 C376.00,314.55 375.55,315.00 375.00,315.00 C374.45,315.00 374.00,314.55 374.00,314.00 ZM 383.00 312.94 C383.00,312.36 383.45,312.16 384.00,312.50 C384.55,312.84 385.00,313.32 385.00,313.56 C385.00,313.80 384.55,314.00 384.00,314.00 C383.45,314.00 383.00,313.52 383.00,312.94 ZM 223.54 312.07 C223.23,311.56 223.42,310.86 223.98,310.51 C224.54,310.16 225.00,310.58 225.00,311.44 C225.00,313.20 224.40,313.46 223.54,312.07 ZM 232.47 311.95 C231.52,310.41 232.82,309.42 234.10,310.70 C234.82,311.42 234.84,311.98 234.16,312.40 C233.60,312.75 232.84,312.55 232.47,311.95 ZM 240.00 311.50 C240.00,310.67 240.45,310.00 241.00,310.00 C241.55,310.00 242.00,310.67 242.00,311.50 C242.00,312.33 241.55,313.00 241.00,313.00 C240.45,313.00 240.00,312.33 240.00,311.50 ZM 378.00 312.00 C378.00,311.45 378.45,311.00 379.00,311.00 C379.55,311.00 380.00,311.45 380.00,312.00 C380.00,312.55 379.55,313.00 379.00,313.00 C378.45,313.00 378.00,312.55 378.00,312.00 ZM 387.50 311.00 C387.84,310.45 388.32,310.00 388.56,310.00 C388.80,310.00 389.00,310.45 389.00,311.00 C389.00,311.55 388.52,312.00 387.94,312.00 C387.36,312.00 387.16,311.55 387.50,311.00 ZM 216.00 309.94 C216.00,309.36 216.45,309.16 217.00,309.50 C217.55,309.84 218.00,310.32 218.00,310.56 C218.00,310.80 217.55,311.00 217.00,311.00 C216.45,311.00 216.00,310.52 216.00,309.94 ZM 229.58 310.13 C229.15,309.44 229.07,308.60 229.40,308.27 C230.29,307.37 231.27,308.69 230.79,310.14 C230.45,311.15 230.21,311.15 229.58,310.13 ZM 381.00 309.44 C381.00,308.58 381.45,308.16 382.00,308.50 C382.55,308.84 383.00,309.54 383.00,310.06 C383.00,310.58 382.55,311.00 382.00,311.00 C381.45,311.00 381.00,310.30 381.00,309.44 ZM 395.00 310.00 C395.00,309.45 395.45,309.00 396.00,309.00 C396.55,309.00 397.00,309.45 397.00,310.00 C397.00,310.55 396.55,311.00 396.00,311.00 C395.45,311.00 395.00,310.55 395.00,310.00 ZM 219.00 309.00 C219.00,308.45 219.48,308.00 220.06,308.00 C220.64,308.00 220.84,308.45 220.50,309.00 C220.16,309.55 219.68,310.00 219.44,310.00 C219.20,310.00 219.00,309.55 219.00,309.00 ZM 236.19 308.92 C236.39,308.33 236.98,307.85 237.50,307.85 C238.02,307.85 238.61,308.33 238.81,308.92 C239.01,309.52 238.42,310.00 237.50,310.00 C236.58,310.00 235.99,309.52 236.19,308.92 ZM 225.00 307.00 C225.00,306.45 225.68,306.00 226.50,306.00 C227.32,306.00 228.00,306.45 228.00,307.00 C228.00,307.55 227.32,308.00 226.50,308.00 C225.68,308.00 225.00,307.55 225.00,307.00 ZM 232.54 307.07 C231.80,305.87 233.68,304.69 235.02,305.51 C236.13,306.20 235.40,308.00 234.00,308.00 C233.51,308.00 232.86,307.58 232.54,307.07 ZM 384.55 307.09 C384.23,306.56 384.39,305.87 384.91,305.55 C385.44,305.23 386.13,305.39 386.45,305.91 C386.77,306.44 386.61,307.13 386.09,307.45 C385.56,307.77 384.87,307.61 384.55,307.09 ZM 216.00 305.44 C216.00,304.58 216.46,304.16 217.02,304.51 C217.58,304.86 217.77,305.56 217.46,306.07 C216.60,307.46 216.00,307.20 216.00,305.44 ZM 394.00 306.00 C394.00,305.45 394.45,305.00 395.00,305.00 C395.55,305.00 396.00,305.45 396.00,306.00 C396.00,306.55 395.55,307.00 395.00,307.00 C394.45,307.00 394.00,306.55 394.00,306.00 ZM 405.50 306.00 C405.84,305.45 406.32,305.00 406.56,305.00 C406.80,305.00 407.00,305.45 407.00,306.00 C407.00,306.55 406.52,307.00 405.94,307.00 C405.36,307.00 405.16,306.55 405.50,306.00 ZM 221.47 304.95 C220.52,303.41 221.82,302.42 223.10,303.70 C223.82,304.42 223.84,304.98 223.16,305.40 C222.60,305.75 221.84,305.55 221.47,304.95 ZM 402.00 305.00 C402.00,304.45 402.45,304.00 403.00,304.00 C403.55,304.00 404.00,304.45 404.00,305.00 C404.00,305.55 403.55,306.00 403.00,306.00 C402.45,306.00 402.00,305.55 402.00,305.00 ZM 388.00 304.00 C388.00,303.45 388.45,303.00 389.00,303.00 C389.55,303.00 390.00,303.45 390.00,304.00 C390.00,304.55 389.55,305.00 389.00,305.00 C388.45,305.00 388.00,304.55 388.00,304.00 ZM 229.00 303.00 C229.00,302.45 229.45,302.00 230.00,302.00 C230.55,302.00 231.00,302.45 231.00,303.00 C231.00,303.55 230.55,304.00 230.00,304.00 C229.45,304.00 229.00,303.55 229.00,303.00 ZM 217.00 301.00 C217.00,300.45 217.45,300.00 218.00,300.00 C218.55,300.00 219.00,300.45 219.00,301.00 C219.00,301.55 218.55,302.00 218.00,302.00 C217.45,302.00 217.00,301.55 217.00,301.00 ZM 225.64 301.31 C224.51,300.18 224.95,299.00 226.50,299.00 C227.32,299.00 228.00,299.42 228.00,299.94 C228.00,301.20 226.44,302.11 225.64,301.31 ZM 392.00 301.00 C392.00,300.45 392.45,300.00 393.00,300.00 C393.55,300.00 394.00,300.45 394.00,301.00 C394.00,301.55 393.55,302.00 393.00,302.00 C392.45,302.00 392.00,301.55 392.00,301.00 ZM 401.00 300.00 C401.00,299.45 401.45,299.00 402.00,299.00 C402.55,299.00 403.00,299.45 403.00,300.00 C403.00,300.55 402.55,301.00 402.00,301.00 C401.45,301.00 401.00,300.55 401.00,300.00 ZM 210.00 299.00 C210.00,298.45 210.45,298.00 211.00,298.00 C211.55,298.00 212.00,298.45 212.00,299.00 C212.00,299.55 211.55,300.00 211.00,300.00 C210.45,300.00 210.00,299.55 210.00,299.00 ZM 221.60 299.16 C221.25,298.60 221.45,297.84 222.05,297.47 C223.59,296.52 224.58,297.82 223.30,299.10 C222.58,299.82 222.02,299.84 221.60,299.16 ZM 395.50 298.00 C395.84,297.45 396.32,297.00 396.56,297.00 C396.80,297.00 397.00,297.45 397.00,298.00 C397.00,298.55 396.52,299.00 395.94,299.00 C395.36,299.00 395.16,298.55 395.50,298.00 ZM 215.00 297.00 C215.00,296.45 215.42,296.00 215.94,296.00 C216.46,296.00 217.16,296.45 217.50,297.00 C217.84,297.55 217.42,298.00 216.56,298.00 C215.70,298.00 215.00,297.55 215.00,297.00 ZM 409.00 297.00 C409.00,296.45 409.48,296.00 410.06,296.00 C410.64,296.00 410.84,296.45 410.50,297.00 C410.16,297.55 409.68,298.00 409.44,298.00 C409.20,298.00 409.00,297.55 409.00,297.00 ZM 201.00 296.00 C201.00,295.45 201.45,295.00 202.00,295.00 C202.55,295.00 203.00,295.45 203.00,296.00 C203.00,296.55 202.55,297.00 202.00,297.00 C201.45,297.00 201.00,296.55 201.00,296.00 ZM 207.00 296.00 C207.00,295.45 207.45,295.00 208.00,295.00 C208.55,295.00 209.00,295.45 209.00,296.00 C209.00,296.55 208.55,297.00 208.00,297.00 C207.45,297.00 207.00,296.55 207.00,296.00 ZM 398.00 296.00 C398.00,295.45 398.45,295.00 399.00,295.00 C399.55,295.00 400.00,295.45 400.00,296.00 C400.00,296.55 399.55,297.00 399.00,297.00 C398.45,297.00 398.00,296.55 398.00,296.00 ZM 405.00 296.00 C405.00,295.45 405.45,295.00 406.00,295.00 C406.55,295.00 407.00,295.45 407.00,296.00 C407.00,296.55 406.55,297.00 406.00,297.00 C405.45,297.00 405.00,296.55 405.00,296.00 ZM 219.00 295.00 C219.00,294.45 219.68,294.00 220.50,294.00 C221.32,294.00 222.00,294.45 222.00,295.00 C222.00,295.55 221.32,296.00 220.50,296.00 C219.68,296.00 219.00,295.55 219.00,295.00 ZM 211.15 294.05 C211.37,293.39 211.88,292.88 212.27,292.92 C213.47,293.05 213.24,294.42 211.95,294.85 C211.29,295.07 210.93,294.71 211.15,294.05 ZM 411.00 293.94 C411.00,293.36 411.45,293.16 412.00,293.50 C412.55,293.84 413.00,294.32 413.00,294.56 C413.00,294.80 412.55,295.00 412.00,295.00 C411.45,295.00 411.00,294.52 411.00,293.94 ZM 203.55 292.09 C203.23,291.56 203.39,290.87 203.91,290.55 C204.44,290.23 205.13,290.39 205.45,290.91 C205.77,291.44 205.61,292.13 205.09,292.45 C204.56,292.77 203.87,292.61 203.55,292.09 ZM 216.19 291.92 C216.39,291.33 216.98,290.85 217.50,290.85 C218.02,290.85 218.61,291.33 218.81,291.92 C219.01,292.52 218.42,293.00 217.50,293.00 C216.58,293.00 215.99,292.52 216.19,291.92 ZM 401.55 292.09 C401.23,291.56 401.39,290.87 401.91,290.55 C402.44,290.23 403.13,290.39 403.45,290.91 C403.77,291.44 403.61,292.13 403.09,292.45 C402.56,292.77 401.87,292.61 401.55,292.09 ZM 407.00 291.94 C407.00,291.36 407.45,291.16 408.00,291.50 C408.55,291.84 409.00,292.32 409.00,292.56 C409.00,292.80 408.55,293.00 408.00,293.00 C407.45,293.00 407.00,292.52 407.00,291.94 ZM 198.00 290.94 C198.00,290.36 198.45,290.16 199.00,290.50 C199.55,290.84 200.00,291.32 200.00,291.56 C200.00,291.80 199.55,292.00 199.00,292.00 C198.45,292.00 198.00,291.52 198.00,290.94 ZM 209.00 291.00 C209.00,290.45 209.45,290.00 210.00,290.00 C210.55,290.00 211.00,290.45 211.00,291.00 C211.00,291.55 210.55,292.00 210.00,292.00 C209.45,292.00 209.00,291.55 209.00,291.00 ZM 415.50 291.00 C415.16,290.45 415.36,290.00 415.94,290.00 C416.52,290.00 417.00,290.45 417.00,291.00 C417.00,291.55 416.80,292.00 416.56,292.00 C416.32,292.00 415.84,291.55 415.50,291.00 ZM 213.64 289.31 C212.51,288.18 212.95,287.00 214.50,287.00 C215.32,287.00 216.00,287.42 216.00,287.94 C216.00,289.20 214.44,290.11 213.64,289.31 ZM 404.55 289.09 C404.23,288.56 404.39,287.87 404.91,287.55 C405.44,287.23 406.13,287.39 406.45,287.91 C406.77,288.44 406.61,289.13 406.09,289.45 C405.56,289.77 404.87,289.61 404.55,289.09 ZM 409.15 289.05 C409.37,288.39 409.88,287.88 410.27,287.92 C411.47,288.05 411.24,289.42 409.95,289.85 C409.29,290.07 408.93,289.71 409.15,289.05 ZM 195.00 288.00 C195.00,287.45 195.48,287.00 196.06,287.00 C196.64,287.00 196.84,287.45 196.50,288.00 C196.16,288.55 195.68,289.00 195.44,289.00 C195.20,289.00 195.00,288.55 195.00,288.00 ZM 200.50 287.00 C200.84,286.45 201.32,286.00 201.56,286.00 C201.80,286.00 202.00,286.45 202.00,287.00 C202.00,287.55 201.52,288.00 200.94,288.00 C200.36,288.00 200.16,287.55 200.50,287.00 ZM 206.00 287.00 C206.00,286.45 206.45,286.00 207.00,286.00 C207.55,286.00 208.00,286.45 208.00,287.00 C208.00,287.55 207.55,288.00 207.00,288.00 C206.45,288.00 206.00,287.55 206.00,287.00 ZM 210.60 286.16 C210.25,285.60 210.45,284.84 211.05,284.47 C212.59,283.52 213.58,284.82 212.30,286.10 C211.58,286.82 211.02,286.84 210.60,286.16 ZM 407.00 286.00 C407.00,285.45 407.45,285.00 408.00,285.00 C408.55,285.00 409.00,285.45 409.00,286.00 C409.00,286.55 408.55,287.00 408.00,287.00 C407.45,287.00 407.00,286.55 407.00,286.00 ZM 412.00 285.00 C412.00,284.45 412.45,284.00 413.00,284.00 C413.55,284.00 414.00,284.45 414.00,285.00 C414.00,285.55 413.55,286.00 413.00,286.00 C412.45,286.00 412.00,285.55 412.00,285.00 ZM 197.00 283.44 C197.00,282.58 197.45,282.16 198.00,282.50 C198.55,282.84 199.00,283.54 199.00,284.06 C199.00,284.58 198.55,285.00 198.00,285.00 C197.45,285.00 197.00,284.30 197.00,283.44 ZM 203.00 284.00 C203.00,283.45 203.45,283.00 204.00,283.00 C204.55,283.00 205.00,283.45 205.00,284.00 C205.00,284.55 204.55,285.00 204.00,285.00 C203.45,285.00 203.00,284.55 203.00,284.00 ZM 207.00 282.50 C207.00,281.67 207.45,281.00 208.00,281.00 C208.55,281.00 209.00,281.67 209.00,282.50 C209.00,283.33 208.55,284.00 208.00,284.00 C207.45,284.00 207.00,283.33 207.00,282.50 ZM 410.00 282.50 C410.00,281.58 410.48,280.99 411.08,281.19 C411.67,281.39 412.15,281.98 412.15,282.50 C412.15,283.02 411.67,283.61 411.08,283.81 C410.48,284.01 410.00,283.42 410.00,282.50 ZM 199.19 280.92 C199.39,280.33 199.98,279.85 200.50,279.85 C201.02,279.85 201.61,280.33 201.81,280.92 C202.01,281.52 201.42,282.00 200.50,282.00 C199.58,282.00 198.99,281.52 199.19,280.92 ZM 195.00 280.00 C195.00,279.45 195.48,279.00 196.06,279.00 C196.64,279.00 196.84,279.45 196.50,280.00 C196.16,280.55 195.68,281.00 195.44,281.00 C195.20,281.00 195.00,280.55 195.00,280.00 ZM 412.54 280.07 C411.86,278.96 413.44,277.77 414.36,278.69 C415.31,279.64 415.13,281.00 414.06,281.00 C413.54,281.00 412.86,280.58 412.54,280.07 ZM 205.50 279.00 C205.10,278.35 205.22,277.38 205.77,276.83 C206.44,276.16 207.02,276.22 207.50,277.00 C207.90,277.65 207.78,278.62 207.23,279.17 C206.56,279.84 205.98,279.78 205.50,279.00 ZM 418.00 279.00 C418.00,278.45 418.45,278.00 419.00,278.00 C419.55,278.00 420.00,278.45 420.00,279.00 C420.00,279.55 419.55,280.00 419.00,280.00 C418.45,280.00 418.00,279.55 418.00,279.00 ZM 423.00 279.00 C423.00,278.45 423.48,278.00 424.06,278.00 C424.64,278.00 424.84,278.45 424.50,279.00 C424.16,279.55 423.68,280.00 423.44,280.00 C423.20,280.00 423.00,279.55 423.00,279.00 ZM 198.00 276.50 C198.00,275.67 198.45,275.00 199.00,275.00 C199.55,275.00 200.00,275.67 200.00,276.50 C200.00,277.33 199.55,278.00 199.00,278.00 C198.45,278.00 198.00,277.33 198.00,276.50 ZM 191.00 275.94 C191.00,275.36 191.45,275.16 192.00,275.50 C192.55,275.84 193.00,276.32 193.00,276.56 C193.00,276.80 192.55,277.00 192.00,277.00 C191.45,277.00 191.00,276.52 191.00,275.94 ZM 202.50 275.00 C202.10,274.35 202.22,273.38 202.77,272.83 C203.44,272.16 204.02,272.22 204.50,273.00 C204.90,273.65 204.78,274.62 204.23,275.17 C203.56,275.84 202.98,275.78 202.50,275.00 ZM 426.00 275.00 C426.00,274.45 426.48,274.00 427.06,274.00 C427.64,274.00 427.84,274.45 427.50,275.00 C427.16,275.55 426.68,276.00 426.44,276.00 C426.20,276.00 426.00,275.55 426.00,275.00 ZM 195.00 273.50 C195.00,272.67 195.45,272.00 196.00,272.00 C196.55,272.00 197.00,272.67 197.00,273.50 C197.00,274.33 196.55,275.00 196.00,275.00 C195.45,275.00 195.00,274.33 195.00,273.50 ZM 420.00 274.00 C420.00,273.45 420.45,273.00 421.00,273.00 C421.55,273.00 422.00,273.45 422.00,274.00 C422.00,274.55 421.55,275.00 421.00,275.00 C420.45,275.00 420.00,274.55 420.00,274.00 ZM 428.50 272.00 C428.16,271.45 428.36,271.00 428.94,271.00 C429.52,271.00 430.00,271.45 430.00,272.00 C430.00,272.55 429.80,273.00 429.56,273.00 C429.32,273.00 428.84,272.55 428.50,272.00 ZM 200.15 271.05 C200.37,270.39 200.88,269.88 201.27,269.92 C202.47,270.05 202.24,271.42 200.95,271.85 C200.29,272.07 199.93,271.71 200.15,271.05 ZM 418.00 271.00 C418.00,270.45 418.45,270.00 419.00,270.00 C419.55,270.00 420.00,270.45 420.00,271.00 C420.00,271.55 419.55,272.00 419.00,272.00 C418.45,272.00 418.00,271.55 418.00,271.00 ZM 423.00 270.00 C423.00,269.45 423.45,269.00 424.00,269.00 C424.55,269.00 425.00,269.45 425.00,270.00 C425.00,270.55 424.55,271.00 424.00,271.00 C423.45,271.00 423.00,270.55 423.00,270.00 ZM 193.00 269.00 C193.00,268.45 193.45,268.00 194.00,268.00 C194.55,268.00 195.00,268.45 195.00,269.00 C195.00,269.55 194.55,270.00 194.00,270.00 C193.45,270.00 193.00,269.55 193.00,269.00 ZM 198.00 267.61 C198.00,266.84 197.30,265.94 196.44,265.61 C195.58,265.28 195.15,264.56 195.50,264.01 C196.44,262.48 197.70,262.80 198.38,264.75 C198.72,265.71 199.26,267.06 199.58,267.75 C199.90,268.44 199.68,269.00 199.08,269.00 C198.49,269.00 198.00,268.37 198.00,267.61 ZM 421.00 266.94 C421.00,266.36 421.45,266.16 422.00,266.50 C422.55,266.84 423.00,267.32 423.00,267.56 C423.00,267.80 422.55,268.00 422.00,268.00 C421.45,268.00 421.00,267.52 421.00,266.94 ZM 426.00 266.94 C426.00,266.36 426.45,266.16 427.00,266.50 C427.55,266.84 428.00,267.32 428.00,267.56 C428.00,267.80 427.55,268.00 427.00,268.00 C426.45,268.00 426.00,267.52 426.00,266.94 ZM 191.00 265.50 C191.00,264.67 191.45,264.00 192.00,264.00 C192.55,264.00 193.00,264.67 193.00,265.50 C193.00,266.33 192.55,267.00 192.00,267.00 C191.45,267.00 191.00,266.33 191.00,265.50 ZM 189.00 262.44 C189.00,261.58 189.46,261.16 190.02,261.51 C190.58,261.86 190.77,262.56 190.46,263.07 C189.60,264.46 189.00,264.20 189.00,262.44 ZM 422.00 263.00 C422.00,262.45 422.45,262.00 423.00,262.00 C423.55,262.00 424.00,262.45 424.00,263.00 C424.00,263.55 423.55,264.00 423.00,264.00 C422.45,264.00 422.00,263.55 422.00,263.00 ZM 427.00 263.00 C427.00,262.45 427.48,262.00 428.06,262.00 C428.64,262.00 428.84,262.45 428.50,263.00 C428.16,263.55 427.68,264.00 427.44,264.00 C427.20,264.00 427.00,263.55 427.00,263.00 ZM 185.00 262.00 C185.00,261.45 185.45,261.00 186.00,261.00 C186.55,261.00 187.00,261.45 187.00,262.00 C187.00,262.55 186.55,263.00 186.00,263.00 C185.45,263.00 185.00,262.55 185.00,262.00 ZM 193.19 260.92 C193.39,260.33 193.98,259.85 194.50,259.85 C195.02,259.85 195.61,260.33 195.81,260.92 C196.01,261.52 195.42,262.00 194.50,262.00 C193.58,262.00 192.99,261.52 193.19,260.92 ZM 425.00 259.44 C425.00,258.58 425.46,258.16 426.02,258.51 C426.58,258.86 426.77,259.56 426.46,260.07 C425.60,261.46 425.00,261.20 425.00,259.44 ZM 181.50 258.00 C181.16,257.45 181.36,257.00 181.94,257.00 C182.52,257.00 183.00,257.45 183.00,258.00 C183.00,258.55 182.80,259.00 182.56,259.00 C182.32,259.00 181.84,258.55 181.50,258.00 ZM 191.60 258.16 C191.25,257.60 191.45,256.84 192.05,256.47 C193.59,255.52 194.58,256.82 193.30,258.10 C192.58,258.82 192.02,258.84 191.60,258.16 ZM 426.00 256.00 C426.00,255.45 426.45,255.00 427.00,255.00 C427.55,255.00 428.00,255.45 428.00,256.00 C428.00,256.55 427.55,257.00 427.00,257.00 C426.45,257.00 426.00,256.55 426.00,256.00 ZM 185.50 255.00 C185.16,254.45 185.58,254.00 186.44,254.00 C187.30,254.00 188.00,254.45 188.00,255.00 C188.00,255.55 187.58,256.00 187.06,256.00 C186.54,256.00 185.84,255.55 185.50,255.00 ZM 180.00 253.94 C180.00,253.36 180.45,253.16 181.00,253.50 C181.55,253.84 182.00,254.32 182.00,254.56 C182.00,254.80 181.55,255.00 181.00,255.00 C180.45,255.00 180.00,254.52 180.00,253.94 ZM 190.00 253.50 C190.00,252.68 190.45,252.00 191.00,252.00 C191.55,252.00 192.00,252.68 192.00,253.50 C192.00,254.32 191.55,255.00 191.00,255.00 C190.45,255.00 190.00,254.32 190.00,253.50 ZM 431.00 254.00 C431.00,253.45 431.48,253.00 432.06,253.00 C432.64,253.00 432.84,253.45 432.50,254.00 C432.16,254.55 431.68,255.00 431.44,255.00 C431.20,255.00 431.00,254.55 431.00,254.00 ZM 428.00 252.44 C428.00,251.58 428.46,251.16 429.02,251.51 C429.58,251.86 429.77,252.56 429.46,253.07 C428.60,254.46 428.00,254.20 428.00,252.44 ZM 184.00 250.00 C184.00,249.45 184.68,249.00 185.50,249.00 C186.32,249.00 187.00,249.45 187.00,250.00 C187.00,250.55 186.32,251.00 185.50,251.00 C184.68,251.00 184.00,250.55 184.00,250.00 ZM 434.00 250.00 C434.00,249.45 434.45,249.00 435.00,249.00 C435.55,249.00 436.00,249.45 436.00,250.00 C436.00,250.55 435.55,251.00 435.00,251.00 C434.45,251.00 434.00,250.55 434.00,250.00 ZM 189.00 249.00 C189.00,248.45 189.68,248.00 190.50,248.00 C191.32,248.00 192.00,248.45 192.00,249.00 C192.00,249.55 191.32,250.00 190.50,250.00 C189.68,250.00 189.00,249.55 189.00,249.00 ZM 429.00 248.00 C429.00,247.45 429.70,247.00 430.56,247.00 C431.42,247.00 431.84,247.45 431.50,248.00 C431.16,248.55 430.46,249.00 429.94,249.00 C429.42,249.00 429.00,248.55 429.00,248.00 ZM 183.47 246.95 C182.52,245.41 183.82,244.42 185.10,245.70 C185.82,246.42 185.84,246.98 185.16,247.40 C184.60,247.75 183.84,247.55 183.47,246.95 ZM 188.00 245.50 C188.00,244.58 188.48,243.99 189.07,244.19 C189.67,244.39 190.15,244.98 190.15,245.50 C190.15,246.02 189.67,246.61 189.07,246.81 C188.48,247.01 188.00,246.42 188.00,245.50 ZM 435.00 245.00 C435.00,244.45 435.45,244.00 436.00,244.00 C436.55,244.00 437.00,244.45 437.00,245.00 C437.00,245.55 436.55,246.00 436.00,246.00 C435.45,246.00 435.00,245.55 435.00,245.00 ZM 431.00 242.94 C431.00,242.36 431.45,242.16 432.00,242.50 C432.55,242.84 433.00,243.32 433.00,243.56 C433.00,243.80 432.55,244.00 432.00,244.00 C431.45,244.00 431.00,243.52 431.00,242.94 ZM 181.00 242.00 C181.00,241.45 181.45,241.00 182.00,241.00 C182.55,241.00 183.00,241.45 183.00,242.00 C183.00,242.55 182.55,243.00 182.00,243.00 C181.45,243.00 181.00,242.55 181.00,242.00 ZM 186.00 241.00 C186.00,240.45 186.42,240.00 186.94,240.00 C187.46,240.00 188.16,240.45 188.50,241.00 C188.84,241.55 188.42,242.00 187.56,242.00 C186.70,242.00 186.00,241.55 186.00,241.00 ZM 432.00 239.44 C432.00,238.58 432.46,238.16 433.02,238.51 C433.58,238.86 433.77,239.56 433.46,240.07 C432.60,241.46 432.00,241.20 432.00,239.44 ZM 180.00 236.94 C180.00,236.36 180.45,236.16 181.00,236.50 C181.55,236.84 182.00,237.32 182.00,237.56 C182.00,237.80 181.55,238.00 181.00,238.00 C180.45,238.00 180.00,237.52 180.00,236.94 ZM 184.00 237.00 C184.00,236.45 184.45,236.00 185.00,236.00 C185.55,236.00 186.00,236.45 186.00,237.00 C186.00,237.55 185.55,238.00 185.00,238.00 C184.45,238.00 184.00,237.55 184.00,237.00 ZM 433.00 234.00 C433.00,233.45 433.45,233.00 434.00,233.00 C434.55,233.00 435.00,233.45 435.00,234.00 C435.00,234.55 434.55,235.00 434.00,235.00 C433.45,235.00 433.00,234.55 433.00,234.00 ZM 178.00 233.00 C178.00,232.45 178.48,232.00 179.06,232.00 C179.64,232.00 179.84,232.45 179.50,233.00 C179.16,233.55 178.68,234.00 178.44,234.00 C178.20,234.00 178.00,233.55 178.00,233.00 ZM 182.50 233.00 C182.16,232.45 182.58,232.00 183.44,232.00 C184.30,232.00 185.00,232.45 185.00,233.00 C185.00,233.55 184.58,234.00 184.06,234.00 C183.54,234.00 182.84,233.55 182.50,233.00 ZM 438.00 233.00 C438.00,232.45 438.45,232.00 439.00,232.00 C439.55,232.00 440.00,232.45 440.00,233.00 C440.00,233.55 439.55,234.00 439.00,234.00 C438.45,234.00 438.00,233.55 438.00,233.00 ZM 174.00 232.00 C174.00,231.45 174.45,231.00 175.00,231.00 C175.55,231.00 176.00,231.45 176.00,232.00 C176.00,232.55 175.55,233.00 175.00,233.00 C174.45,233.00 174.00,232.55 174.00,232.00 ZM 435.00 230.00 C435.00,229.45 435.45,229.00 436.00,229.00 C436.55,229.00 437.00,229.45 437.00,230.00 C437.00,230.55 436.55,231.00 436.00,231.00 C435.45,231.00 435.00,230.55 435.00,230.00 ZM 168.08 228.42 C168.13,227.25 168.36,227.01 168.68,227.81 C168.97,228.53 168.94,229.40 168.60,229.73 C168.27,230.06 168.04,229.47 168.08,228.42 ZM 178.00 228.44 C178.00,227.58 178.46,227.16 179.02,227.51 C179.58,227.86 179.77,228.56 179.46,229.07 C178.60,230.46 178.00,230.20 178.00,228.44 ZM 182.19 228.93 C182.39,228.33 182.98,227.85 183.50,227.85 C184.02,227.85 184.61,228.33 184.81,228.93 C185.01,229.52 184.42,230.00 183.50,230.00 C182.58,230.00 181.99,229.52 182.19,228.93 ZM 439.00 228.00 C439.00,227.45 439.48,227.00 440.06,227.00 C440.64,227.00 440.84,227.45 440.50,228.00 C440.16,228.55 439.68,229.00 439.44,229.00 C439.20,229.00 439.00,228.55 439.00,228.00 ZM 173.00 226.00 C173.00,225.45 173.45,225.00 174.00,225.00 C174.55,225.00 175.00,225.45 175.00,226.00 C175.00,226.55 174.55,227.00 174.00,227.00 C173.45,227.00 173.00,226.55 173.00,226.00 ZM 435.00 226.00 C435.00,225.45 435.45,225.00 436.00,225.00 C436.55,225.00 437.00,225.45 437.00,226.00 C437.00,226.55 436.55,227.00 436.00,227.00 C435.45,227.00 435.00,226.55 435.00,226.00 ZM 181.55 225.09 C181.23,224.56 181.39,223.87 181.91,223.55 C182.44,223.23 183.13,223.39 183.45,223.91 C183.77,224.44 183.61,225.13 183.09,225.45 C182.56,225.77 181.87,225.61 181.55,225.09 ZM 177.00 224.00 C177.00,223.45 177.45,223.00 178.00,223.00 C178.55,223.00 179.00,223.45 179.00,224.00 C179.00,224.55 178.55,225.00 178.00,225.00 C177.45,225.00 177.00,224.55 177.00,224.00 ZM 436.00 221.50 C436.00,220.68 436.45,220.00 437.00,220.00 C437.55,220.00 438.00,220.68 438.00,221.50 C438.00,222.32 437.55,223.00 437.00,223.00 C436.45,223.00 436.00,222.32 436.00,221.50 ZM 172.50 221.00 C172.84,220.45 173.32,220.00 173.56,220.00 C173.80,220.00 174.00,220.45 174.00,221.00 C174.00,221.55 173.52,222.00 172.94,222.00 C172.36,222.00 172.16,221.55 172.50,221.00 ZM 176.58 220.13 C176.15,219.44 176.07,218.60 176.40,218.27 C177.29,217.37 178.27,218.69 177.79,220.14 C177.45,221.15 177.21,221.15 176.58,220.13 ZM 180.19 219.93 C180.39,219.33 180.98,218.85 181.50,218.85 C182.02,218.85 182.61,219.33 182.81,219.93 C183.01,220.52 182.42,221.00 181.50,221.00 C180.58,221.00 179.99,220.52 180.19,219.93 ZM 212.00 218.06 C212.00,217.54 212.45,216.84 213.00,216.50 C213.59,216.14 214.00,210.34 214.00,202.50 C214.00,194.66 213.59,188.86 213.00,188.50 C210.96,187.24 212.10,186.00 215.31,186.00 L 218.63 186.00 L 218.56 193.25 L 218.50 200.50 L 226.86 200.79 L 235.22 201.08 L 234.84 193.54 L 234.46 186.00 L 237.48 186.00 L 240.50 186.00 L 240.18 201.50 C239.95,212.54 240.18,217.00 240.99,217.00 C243.66,217.00 240.83,218.60 237.80,218.81 L 234.46 219.03 L 234.84 211.47 L 235.22 203.92 L 226.86 204.21 L 218.51 204.50 L 218.17 209.80 C217.99,212.71 218.32,215.68 218.91,216.39 C219.50,217.10 219.69,217.98 219.32,218.34 C218.31,219.36 212.00,219.12 212.00,218.06 ZM 251.10 217.74 C247.30,215.78 244.76,211.59 244.64,207.10 C244.55,203.74 245.12,202.42 247.79,199.75 C250.60,196.94 251.72,196.50 256.11,196.50 C260.44,196.50 261.53,196.91 263.64,199.37 C265.22,201.21 266.00,203.19 265.80,204.87 C265.51,207.43 265.29,207.51 257.75,207.79 C253.43,207.96 250.00,208.53 250.00,209.09 C250.00,210.90 254.86,215.00 257.00,215.00 C258.16,215.00 260.47,214.29 262.14,213.43 C265.54,211.67 266.36,211.91 265.40,214.39 C263.90,218.30 255.86,220.18 251.10,217.74 ZM 261.32 203.25 C259.47,198.03 255.39,196.61 252.00,200.00 C248.32,203.68 249.37,205.00 255.97,205.00 C261.22,205.00 261.86,204.79 261.32,203.25 ZM 269.54 218.07 C269.23,217.56 269.42,216.86 269.98,216.51 C271.39,215.64 271.33,190.73 269.91,189.31 C268.68,188.08 269.33,187.56 273.25,186.62 L 276.00 185.96 L 276.00 201.48 C276.00,211.74 276.36,217.00 277.06,217.00 C277.64,217.00 277.84,217.45 277.50,218.00 C276.72,219.26 270.31,219.32 269.54,218.07 ZM 281.67 203.28 L 281.84 187.55 L 284.42 186.86 L 287.00 186.17 L 287.00 201.03 C287.00,210.01 287.40,216.13 288.02,216.51 C289.82,217.62 287.98,219.00 284.69,219.00 L 281.50 219.00 L 281.67 203.28 ZM 293.75 217.92 C292.71,217.31 292.00,215.71 292.00,213.95 C292.00,210.59 293.55,210.00 294.50,213.00 C295.35,215.69 298.63,217.31 301.66,216.55 C305.89,215.49 304.30,212.01 298.00,208.50 C293.42,205.95 292.45,204.93 292.20,202.39 C291.83,198.61 293.62,197.00 298.94,196.28 C303.75,195.64 309.00,197.55 309.00,199.95 C309.00,202.79 308.01,202.91 305.48,200.39 C302.87,197.78 300.08,197.32 298.20,199.20 C295.98,201.42 296.97,203.06 301.75,205.11 C304.36,206.23 307.29,207.86 308.25,208.73 C310.74,210.98 310.49,215.55 307.78,217.44 C305.26,219.21 296.47,219.51 293.75,217.92 ZM 322.50 217.59 C308.38,211.31 310.58,190.15 325.84,185.52 C331.66,183.75 341.00,188.73 341.00,193.59 C341.00,196.78 340.48,196.65 336.56,192.50 C332.25,187.92 327.50,187.69 322.86,191.83 C320.18,194.23 319.62,195.53 319.22,200.33 C318.68,206.85 320.11,211.16 323.77,214.03 C326.63,216.28 331.68,216.56 334.25,214.61 C336.25,213.09 336.59,207.99 334.80,206.20 C333.87,205.27 334.80,205.00 339.00,205.00 C343.20,205.00 344.13,205.27 343.20,206.20 C342.54,206.86 342.00,209.03 342.00,211.02 C342.00,214.18 341.51,214.91 338.11,216.82 C333.68,219.31 327.10,219.63 322.50,217.59 ZM 349.69 217.89 C347.16,216.41 345.86,212.50 346.95,209.62 C347.93,207.06 352.48,205.00 357.15,205.00 C359.46,205.00 360.00,204.56 360.00,202.70 C360.00,197.17 355.10,196.48 352.09,201.58 C350.06,205.01 348.06,205.68 347.24,203.22 C347.03,202.58 347.99,200.92 349.38,199.53 C352.87,196.04 359.10,196.01 362.55,199.45 C364.72,201.63 365.00,202.78 365.00,209.45 C365.00,214.81 365.36,217.01 366.25,217.03 C366.94,217.05 366.64,217.56 365.59,218.17 C364.17,219.00 363.18,218.97 361.72,218.06 C360.32,217.18 359.46,217.14 358.68,217.92 C357.31,219.29 352.07,219.27 349.69,217.89 ZM 358.42 215.39 C359.53,214.97 360.00,213.47 360.00,210.33 C360.00,205.57 360.34,205.74 354.25,207.49 C353.00,207.85 351.73,209.22 351.39,210.58 C350.35,214.74 353.86,217.14 358.42,215.39 ZM 374.22 217.44 C372.22,216.04 372.00,215.03 372.00,207.44 C372.00,199.37 371.90,199.00 369.75,198.95 L 367.50 198.90 L 369.80 197.29 C371.07,196.41 372.73,194.18 373.50,192.34 C375.34,187.94 376.81,188.10 377.19,192.75 C377.44,195.76 377.94,196.56 379.75,196.82 C380.99,197.00 382.00,197.53 382.00,198.00 C382.00,198.47 380.99,199.00 379.75,199.18 C377.73,199.47 377.47,200.14 377.20,205.73 C376.87,212.69 378.11,216.00 381.04,216.00 C383.39,216.00 383.64,217.54 381.42,218.39 C378.82,219.39 376.58,219.09 374.22,217.44 ZM 391.00 217.30 C384.59,214.00 383.24,204.67 388.43,199.48 C393.78,194.13 403.82,195.90 406.02,202.57 C406.64,204.44 406.86,206.42 406.51,206.98 C406.17,207.54 402.53,208.00 398.44,208.00 C390.30,208.00 389.10,209.10 393.00,213.00 C395.41,215.41 399.02,215.56 403.14,213.43 C407.17,211.34 408.02,212.43 404.85,215.60 C401.47,218.98 395.65,219.70 391.00,217.30 ZM 402.00 203.50 C402.00,201.38 398.36,198.00 396.07,198.00 C394.24,198.00 390.00,202.29 390.00,204.13 C390.00,204.61 392.70,205.00 396.00,205.00 C400.67,205.00 402.00,204.67 402.00,203.50 ZM 437.00 217.00 C437.00,216.45 437.48,216.00 438.06,216.00 C438.64,216.00 438.84,216.45 438.50,217.00 C438.16,217.55 437.68,218.00 437.44,218.00 C437.20,218.00 437.00,217.55 437.00,217.00 ZM 179.54 216.07 C179.23,215.56 179.42,214.86 179.98,214.51 C181.18,213.77 183.00,214.71 183.00,216.06 C183.00,217.28 180.29,217.28 179.54,216.07 ZM 440.00 215.00 C440.00,214.45 440.45,214.00 441.00,214.00 C441.55,214.00 442.00,214.45 442.00,215.00 C442.00,215.55 441.55,216.00 441.00,216.00 C440.45,216.00 440.00,215.55 440.00,215.00 ZM 445.50 215.00 C445.16,214.45 445.36,214.00 445.94,214.00 C446.52,214.00 447.00,214.45 447.00,215.00 C447.00,215.55 446.80,216.00 446.56,216.00 C446.32,216.00 445.84,215.55 445.50,215.00 ZM 175.51 213.98 C175.86,213.42 176.56,213.23 177.07,213.54 C178.46,214.40 178.20,215.00 176.44,215.00 C175.58,215.00 175.16,214.54 175.51,213.98 ZM 437.00 213.00 C437.00,212.45 437.45,212.00 438.00,212.00 C438.55,212.00 439.00,212.45 439.00,213.00 C439.00,213.55 438.55,214.00 438.00,214.00 C437.45,214.00 437.00,213.55 437.00,213.00 ZM 170.50 212.00 C170.16,211.45 170.36,211.00 170.94,211.00 C171.52,211.00 172.00,211.45 172.00,212.00 C172.00,212.55 171.80,213.00 171.56,213.00 C171.32,213.00 170.84,212.55 170.50,212.00 ZM 180.00 211.50 C180.00,210.68 180.45,210.00 181.00,210.00 C181.55,210.00 182.00,210.68 182.00,211.50 C182.00,212.32 181.55,213.00 181.00,213.00 C180.45,213.00 180.00,212.32 180.00,211.50 ZM 175.00 210.00 C175.00,209.45 175.45,209.00 176.00,209.00 C176.55,209.00 177.00,209.45 177.00,210.00 C177.00,210.55 176.55,211.00 176.00,211.00 C175.45,211.00 175.00,210.55 175.00,210.00 ZM 437.00 209.00 C437.00,208.45 437.45,208.00 438.00,208.00 C438.55,208.00 439.00,208.45 439.00,209.00 C439.00,209.55 438.55,210.00 438.00,210.00 C437.45,210.00 437.00,209.55 437.00,209.00 ZM 445.50 209.00 C445.84,208.45 446.32,208.00 446.56,208.00 C446.80,208.00 447.00,208.45 447.00,209.00 C447.00,209.55 446.52,210.00 445.94,210.00 C445.36,210.00 445.16,209.55 445.50,209.00 ZM 172.00 208.00 C172.00,207.45 172.45,207.00 173.00,207.00 C173.55,207.00 174.00,207.45 174.00,208.00 C174.00,208.55 173.55,209.00 173.00,209.00 C172.45,209.00 172.00,208.55 172.00,208.00 ZM 179.00 207.00 C179.00,206.45 178.32,206.00 177.50,206.00 C176.68,206.00 176.00,205.55 176.00,205.00 C176.00,204.45 176.68,204.00 177.50,204.00 C178.32,204.00 179.00,204.45 179.00,205.00 C179.00,205.55 179.68,206.00 180.50,206.00 C181.32,206.00 182.00,206.45 182.00,207.00 C182.00,207.55 181.32,208.00 180.50,208.00 C179.68,208.00 179.00,207.55 179.00,207.00 ZM 167.00 205.94 C167.00,205.36 167.45,205.16 168.00,205.50 C168.55,205.84 169.00,206.32 169.00,206.56 C169.00,206.80 168.55,207.00 168.00,207.00 C167.45,207.00 167.00,206.52 167.00,205.94 ZM 442.00 206.00 C442.00,205.45 442.45,205.00 443.00,205.00 C443.55,205.00 444.00,205.45 444.00,206.00 C444.00,206.55 443.55,207.00 443.00,207.00 C442.45,207.00 442.00,206.55 442.00,206.00 ZM 437.60 205.16 C437.25,204.60 437.45,203.84 438.05,203.47 C439.59,202.52 440.58,203.82 439.30,205.10 C438.58,205.82 438.02,205.84 437.60,205.16 ZM 171.00 204.00 C171.00,203.45 171.48,203.00 172.06,203.00 C172.64,203.00 172.84,203.45 172.50,204.00 C172.16,204.55 171.68,205.00 171.44,205.00 C171.20,205.00 171.00,204.55 171.00,204.00 ZM 447.00 203.94 C447.00,203.36 447.45,203.16 448.00,203.50 C448.55,203.84 449.00,204.32 449.00,204.56 C449.00,204.80 448.55,205.00 448.00,205.00 C447.45,205.00 447.00,204.52 447.00,203.94 ZM 180.00 203.00 C180.00,202.45 180.45,202.00 181.00,202.00 C181.55,202.00 182.00,202.45 182.00,203.00 C182.00,203.55 181.55,204.00 181.00,204.00 C180.45,204.00 180.00,203.55 180.00,203.00 ZM 176.00 201.00 C176.00,200.45 176.45,200.00 177.00,200.00 C177.55,200.00 178.00,200.45 178.00,201.00 C178.00,201.55 177.55,202.00 177.00,202.00 C176.45,202.00 176.00,201.55 176.00,201.00 ZM 166.00 199.94 C166.00,199.36 166.45,199.16 167.00,199.50 C167.55,199.84 168.00,200.32 168.00,200.56 C168.00,200.80 167.55,201.00 167.00,201.00 C166.45,201.00 166.00,200.52 166.00,199.94 ZM 437.00 200.00 C437.00,199.45 437.45,199.00 438.00,199.00 C438.55,199.00 439.00,199.45 439.00,200.00 C439.00,200.55 438.55,201.00 438.00,201.00 C437.45,201.00 437.00,200.55 437.00,200.00 ZM 442.00 200.00 C442.00,199.45 442.45,199.00 443.00,199.00 C443.55,199.00 444.00,199.45 444.00,200.00 C444.00,200.55 443.55,201.00 443.00,201.00 C442.45,201.00 442.00,200.55 442.00,200.00 ZM 171.00 198.44 C171.00,197.58 171.45,197.16 172.00,197.50 C172.55,197.84 173.00,198.54 173.00,199.06 C173.00,199.58 172.55,200.00 172.00,200.00 C171.45,200.00 171.00,199.30 171.00,198.44 ZM 179.00 198.58 C179.00,197.71 179.71,197.00 180.58,197.00 C181.45,197.00 181.99,197.53 181.77,198.19 C181.15,200.04 179.00,200.35 179.00,198.58 ZM 175.69 198.36 C174.89,197.56 175.80,196.00 177.06,196.00 C177.58,196.00 178.00,196.68 178.00,197.50 C178.00,199.05 176.82,199.49 175.69,198.36 ZM 166.00 196.00 C166.00,195.45 166.45,195.00 167.00,195.00 C167.55,195.00 168.00,195.45 168.00,196.00 C168.00,196.55 167.55,197.00 167.00,197.00 C166.45,197.00 166.00,196.55 166.00,196.00 ZM 437.00 196.00 C437.00,195.45 437.45,195.00 438.00,195.00 C438.55,195.00 439.00,195.45 439.00,196.00 C439.00,196.55 438.55,197.00 438.00,197.00 C437.45,197.00 437.00,196.55 437.00,196.00 ZM 443.00 195.94 C443.00,195.36 443.45,195.16 444.00,195.50 C444.55,195.84 445.00,196.32 445.00,196.56 C445.00,196.80 444.55,197.00 444.00,197.00 C443.45,197.00 443.00,196.52 443.00,195.94 ZM 179.64 195.31 C178.51,194.18 178.95,193.00 180.50,193.00 C181.32,193.00 182.00,193.42 182.00,193.94 C182.00,195.20 180.44,196.11 179.64,195.31 ZM 176.58 193.13 C176.15,192.44 176.07,191.60 176.40,191.27 C177.29,190.37 178.27,191.69 177.79,193.14 C177.45,194.15 177.21,194.15 176.58,193.13 ZM 162.50 192.00 C162.16,191.45 162.36,191.00 162.94,191.00 C163.52,191.00 164.00,191.45 164.00,192.00 C164.00,192.55 163.80,193.00 163.56,193.00 C163.32,193.00 162.84,192.55 162.50,192.00 ZM 436.00 191.58 C436.00,190.71 436.71,190.00 437.58,190.00 C439.35,190.00 439.04,192.15 437.19,192.77 C436.53,192.99 436.00,192.45 436.00,191.58 ZM 441.00 190.94 C441.00,190.36 441.45,190.16 442.00,190.50 C442.55,190.84 443.00,191.32 443.00,191.56 C443.00,191.80 442.55,192.00 442.00,192.00 C441.45,192.00 441.00,191.52 441.00,190.94 ZM 180.00 189.00 C180.00,188.45 180.45,188.00 181.00,188.00 C181.55,188.00 182.00,188.45 182.00,189.00 C182.00,189.55 181.55,190.00 181.00,190.00 C180.45,190.00 180.00,189.55 180.00,189.00 ZM 170.00 188.00 C170.00,187.45 170.42,187.00 170.94,187.00 C171.46,187.00 172.16,187.45 172.50,188.00 C172.84,188.55 172.42,189.00 171.56,189.00 C170.70,189.00 170.00,188.55 170.00,188.00 ZM 176.00 187.50 C176.00,186.68 176.45,186.00 177.00,186.00 C177.55,186.00 178.00,186.68 178.00,187.50 C178.00,188.32 177.55,189.00 177.00,189.00 C176.45,189.00 176.00,188.32 176.00,187.50 ZM 436.00 186.50 C436.00,185.68 436.45,185.00 437.00,185.00 C437.55,185.00 438.00,185.68 438.00,186.50 C438.00,187.32 437.55,188.00 437.00,188.00 C436.45,188.00 436.00,187.32 436.00,186.50 ZM 167.00 185.94 C167.00,185.36 167.45,185.16 168.00,185.50 C168.55,185.84 169.00,186.32 169.00,186.56 C169.00,186.80 168.55,187.00 168.00,187.00 C167.45,187.00 167.00,186.52 167.00,185.94 ZM 180.67 185.33 C179.52,184.18 179.94,183.00 181.50,183.00 C182.32,183.00 183.00,183.68 183.00,184.50 C183.00,186.06 181.82,186.48 180.67,185.33 ZM 173.00 183.94 C173.00,183.36 173.45,183.16 174.00,183.50 C174.55,183.84 175.00,184.32 175.00,184.56 C175.00,184.80 174.55,185.00 174.00,185.00 C173.45,185.00 173.00,184.52 173.00,183.94 ZM 445.50 184.00 C445.84,183.45 446.32,183.00 446.56,183.00 C446.80,183.00 447.00,183.45 447.00,184.00 C447.00,184.55 446.52,185.00 445.94,185.00 C445.36,185.00 445.16,184.55 445.50,184.00 ZM 176.47 182.95 C175.52,181.41 176.82,180.42 178.10,181.70 C178.82,182.42 178.84,182.98 178.16,183.40 C177.60,183.75 176.84,183.55 176.47,182.95 ZM 435.55 183.09 C435.23,182.56 435.39,181.87 435.91,181.55 C436.44,181.23 437.13,181.39 437.45,181.91 C437.77,182.44 437.61,183.13 437.09,183.45 C436.56,183.77 435.87,183.61 435.55,183.09 ZM 181.64 181.31 C180.51,180.18 180.95,179.00 182.50,179.00 C183.32,179.00 184.00,179.42 184.00,179.94 C184.00,181.20 182.44,182.11 181.64,181.31 ZM 445.00 179.44 C445.00,178.58 445.46,178.16 446.02,178.51 C446.58,178.86 446.77,179.56 446.46,180.07 C445.60,181.46 445.00,181.20 445.00,179.44 ZM 173.36 177.50 C173.44,176.13 174.11,175.00 174.86,175.00 C175.68,175.00 175.98,175.62 175.61,176.58 C175.27,177.45 175.00,178.58 175.00,179.08 C175.00,179.59 174.60,180.00 174.11,180.00 C173.61,180.00 173.28,178.88 173.36,177.50 ZM 177.00 178.00 C177.00,177.45 177.45,177.00 178.00,177.00 C178.55,177.00 179.00,177.45 179.00,178.00 C179.00,178.55 178.55,179.00 178.00,179.00 C177.45,179.00 177.00,178.55 177.00,178.00 ZM 435.00 178.00 C435.00,177.45 435.45,177.00 436.00,177.00 C436.55,177.00 437.00,177.45 437.00,178.00 C437.00,178.55 436.55,179.00 436.00,179.00 C435.45,179.00 435.00,178.55 435.00,178.00 ZM 440.00 178.00 C440.00,177.45 440.45,177.00 441.00,177.00 C441.55,177.00 442.00,177.45 442.00,178.00 C442.00,178.55 441.55,179.00 441.00,179.00 C440.45,179.00 440.00,178.55 440.00,178.00 ZM 169.00 175.94 C169.00,175.36 169.45,175.16 170.00,175.50 C170.55,175.84 171.00,176.32 171.00,176.56 C171.00,176.80 170.55,177.00 170.00,177.00 C169.45,177.00 169.00,176.52 169.00,175.94 ZM 182.00 176.00 C182.00,175.45 182.70,175.00 183.56,175.00 C184.42,175.00 184.84,175.45 184.50,176.00 C184.16,176.55 183.46,177.00 182.94,177.00 C182.42,177.00 182.00,176.55 182.00,176.00 ZM 178.00 174.50 C178.00,173.58 178.48,172.99 179.07,173.19 C179.67,173.39 180.15,173.98 180.15,174.50 C180.15,175.02 179.67,175.61 179.07,175.81 C178.48,176.01 178.00,175.42 178.00,174.50 ZM 434.00 173.00 C434.00,172.45 434.45,172.00 435.00,172.00 C435.55,172.00 436.00,172.45 436.00,173.00 C436.00,173.55 435.55,174.00 435.00,174.00 C434.45,174.00 434.00,173.55 434.00,173.00 ZM 438.00 173.00 C438.00,172.45 438.45,172.00 439.00,172.00 C439.55,172.00 440.00,172.45 440.00,173.00 C440.00,173.55 439.55,174.00 439.00,174.00 C438.45,174.00 438.00,173.55 438.00,173.00 ZM 183.00 172.00 C183.00,171.45 183.68,171.00 184.50,171.00 C185.32,171.00 186.00,171.45 186.00,172.00 C186.00,172.55 185.32,173.00 184.50,173.00 C183.68,173.00 183.00,172.55 183.00,172.00 ZM 179.00 170.00 C179.00,169.45 179.68,169.00 180.50,169.00 C181.32,169.00 182.00,169.45 182.00,170.00 C182.00,170.55 181.32,171.00 180.50,171.00 C179.68,171.00 179.00,170.55 179.00,170.00 ZM 437.58 170.13 C437.15,169.44 437.07,168.60 437.40,168.27 C438.29,167.37 439.27,168.69 438.79,170.14 C438.45,171.15 438.21,171.15 437.58,170.13 ZM 443.00 169.94 C443.00,169.36 443.45,169.16 444.00,169.50 C444.55,169.84 445.00,170.32 445.00,170.56 C445.00,170.80 444.55,171.00 444.00,171.00 C443.45,171.00 443.00,170.52 443.00,169.94 ZM 432.00 169.00 C432.00,168.45 432.67,168.00 433.50,168.00 C434.33,168.00 435.00,168.45 435.00,169.00 C435.00,169.55 434.33,170.00 433.50,170.00 C432.67,170.00 432.00,169.55 432.00,169.00 ZM 184.00 167.00 C184.00,166.45 184.45,166.00 185.00,166.00 C185.55,166.00 186.00,166.45 186.00,167.00 C186.00,167.55 185.55,168.00 185.00,168.00 C184.45,168.00 184.00,167.55 184.00,167.00 ZM 180.00 165.50 C180.00,164.68 180.45,164.00 181.00,164.00 C181.55,164.00 182.00,164.68 182.00,165.50 C182.00,166.32 181.55,167.00 181.00,167.00 C180.45,167.00 180.00,166.32 180.00,165.50 ZM 431.69 166.36 C430.89,165.56 431.80,164.00 433.06,164.00 C433.58,164.00 434.00,164.68 434.00,165.50 C434.00,167.05 432.82,167.49 431.69,166.36 ZM 441.00 166.00 C441.00,165.45 441.45,165.00 442.00,165.00 C442.55,165.00 443.00,165.45 443.00,166.00 C443.00,166.55 442.55,167.00 442.00,167.00 C441.45,167.00 441.00,166.55 441.00,166.00 ZM 176.50 165.00 C176.16,164.45 176.36,164.00 176.94,164.00 C177.52,164.00 178.00,164.45 178.00,165.00 C178.00,165.55 177.80,166.00 177.56,166.00 C177.32,166.00 176.84,165.55 176.50,165.00 ZM 436.00 165.00 C436.00,164.45 436.45,164.00 437.00,164.00 C437.55,164.00 438.00,164.45 438.00,165.00 C438.00,165.55 437.55,166.00 437.00,166.00 C436.45,166.00 436.00,165.55 436.00,165.00 ZM 185.55 164.09 C185.23,163.56 185.39,162.87 185.91,162.55 C186.44,162.23 187.13,162.39 187.45,162.91 C187.77,163.44 187.61,164.13 187.09,164.45 C186.56,164.77 185.87,164.61 185.55,164.09 ZM 172.54 162.07 C172.23,161.56 172.42,160.86 172.98,160.51 C173.54,160.16 174.00,160.58 174.00,161.44 C174.00,163.20 173.40,163.46 172.54,162.07 ZM 430.60 162.16 C430.25,161.60 430.45,160.84 431.05,160.47 C432.59,159.52 433.58,160.82 432.30,162.10 C431.58,162.82 431.02,162.84 430.60,162.16 ZM 439.00 161.00 C439.00,160.45 439.45,160.00 440.00,160.00 C440.55,160.00 441.00,160.45 441.00,161.00 C441.00,161.55 440.55,162.00 440.00,162.00 C439.45,162.00 439.00,161.55 439.00,161.00 ZM 177.50 160.00 C177.84,159.45 178.32,159.00 178.56,159.00 C178.80,159.00 179.00,159.45 179.00,160.00 C179.00,160.55 178.52,161.00 177.94,161.00 C177.36,161.00 177.16,160.55 177.50,160.00 ZM 182.00 159.94 C182.00,159.36 182.45,159.16 183.00,159.50 C183.55,159.84 184.00,160.32 184.00,160.56 C184.00,160.80 183.55,161.00 183.00,161.00 C182.45,161.00 182.00,160.52 182.00,159.94 ZM 435.00 159.94 C435.00,159.36 435.45,159.16 436.00,159.50 C436.55,159.84 437.00,160.32 437.00,160.56 C437.00,160.80 436.55,161.00 436.00,161.00 C435.45,161.00 435.00,160.52 435.00,159.94 ZM 186.50 159.00 C186.16,158.45 186.58,158.00 187.44,158.00 C188.30,158.00 189.00,158.45 189.00,159.00 C189.00,159.55 188.58,160.00 188.06,160.00 C187.54,160.00 186.84,159.55 186.50,159.00 ZM 174.00 158.00 C174.00,157.45 174.45,157.00 175.00,157.00 C175.55,157.00 176.00,157.45 176.00,158.00 C176.00,158.55 175.55,159.00 175.00,159.00 C174.45,159.00 174.00,158.55 174.00,158.00 ZM 429.00 158.00 C429.00,157.45 429.48,157.00 430.06,157.00 C430.64,157.00 430.84,157.45 430.50,158.00 C430.16,158.55 429.68,159.00 429.44,159.00 C429.20,159.00 429.00,158.55 429.00,158.00 ZM 183.00 156.00 C183.00,155.45 183.45,155.00 184.00,155.00 C184.55,155.00 185.00,155.45 185.00,156.00 C185.00,156.55 184.55,157.00 184.00,157.00 C183.45,157.00 183.00,156.55 183.00,156.00 ZM 434.00 155.58 C434.00,154.80 433.44,153.97 432.75,153.72 C432.06,153.47 431.84,152.91 432.26,152.46 C432.68,152.01 433.68,152.51 434.48,153.57 C436.20,155.85 436.38,157.00 435.00,157.00 C434.45,157.00 434.00,156.36 434.00,155.58 ZM 188.00 155.08 C188.00,154.49 187.32,154.00 186.50,154.00 C185.68,154.00 185.00,153.55 185.00,153.00 C185.00,151.82 186.35,151.68 187.42,152.75 C187.83,153.16 188.58,153.50 189.08,153.50 C190.38,153.50 190.37,155.38 189.07,155.81 C188.48,156.01 188.00,155.68 188.00,155.08 ZM 180.00 153.00 C180.00,152.45 180.45,152.00 181.00,152.00 C181.55,152.00 182.00,152.45 182.00,153.00 C182.00,153.55 181.55,154.00 181.00,154.00 C180.45,154.00 180.00,153.55 180.00,153.00 ZM 427.00 152.50 C427.00,151.68 427.45,151.00 428.00,151.00 C428.55,151.00 429.00,151.68 429.00,152.50 C429.00,153.32 428.55,154.00 428.00,154.00 C427.45,154.00 427.00,153.32 427.00,152.50 ZM 190.54 151.07 C189.86,149.96 191.44,148.77 192.36,149.69 C193.31,150.64 193.13,152.00 192.06,152.00 C191.54,152.00 190.86,151.58 190.54,151.07 ZM 425.00 149.00 C425.00,148.45 425.45,148.00 426.00,148.00 C426.55,148.00 427.00,148.45 427.00,149.00 C427.00,149.55 426.55,150.00 426.00,150.00 C425.45,150.00 425.00,149.55 425.00,149.00 ZM 186.50 148.00 C186.84,147.45 187.32,147.00 187.56,147.00 C187.80,147.00 188.00,147.45 188.00,148.00 C188.00,148.55 187.52,149.00 186.94,149.00 C186.36,149.00 186.16,148.55 186.50,148.00 ZM 430.00 148.00 C430.00,147.45 430.45,147.00 431.00,147.00 C431.55,147.00 432.00,147.45 432.00,148.00 C432.00,148.55 431.55,149.00 431.00,149.00 C430.45,149.00 430.00,148.55 430.00,148.00 ZM 435.00 148.00 C435.00,147.45 435.45,147.00 436.00,147.00 C436.55,147.00 437.00,147.45 437.00,148.00 C437.00,148.55 436.55,149.00 436.00,149.00 C435.45,149.00 435.00,148.55 435.00,148.00 ZM 192.00 146.00 C192.00,145.45 192.68,145.00 193.50,145.00 C194.32,145.00 195.00,145.45 195.00,146.00 C195.00,146.55 194.32,147.00 193.50,147.00 C192.68,147.00 192.00,146.55 192.00,146.00 ZM 423.47 145.95 C422.52,144.41 423.82,143.42 425.10,144.70 C425.82,145.42 425.84,145.98 425.16,146.40 C424.60,146.75 423.84,146.55 423.47,145.95 ZM 188.51 143.98 C188.86,143.42 189.56,143.23 190.07,143.54 C191.46,144.40 191.20,145.00 189.44,145.00 C188.58,145.00 188.16,144.54 188.51,143.98 ZM 429.08 143.42 C429.13,142.25 429.36,142.01 429.68,142.81 C429.97,143.53 429.94,144.40 429.60,144.73 C429.27,145.06 429.04,144.47 429.08,143.42 ZM 185.00 142.94 C185.00,142.36 185.45,142.16 186.00,142.50 C186.55,142.84 187.00,143.32 187.00,143.56 C187.00,143.80 186.55,144.00 186.00,144.00 C185.45,144.00 185.00,143.52 185.00,142.94 ZM 194.55 143.09 C194.23,142.56 194.39,141.87 194.91,141.55 C195.44,141.23 196.13,141.39 196.45,141.91 C196.77,142.44 196.61,143.13 196.09,143.45 C195.56,143.77 194.87,143.61 194.55,143.09 ZM 434.00 142.94 C434.00,142.36 434.45,142.16 435.00,142.50 C435.55,142.84 436.00,143.32 436.00,143.56 C436.00,143.80 435.55,144.00 435.00,144.00 C434.45,144.00 434.00,143.52 434.00,142.94 ZM 421.15 141.05 C421.58,139.76 422.95,139.53 423.08,140.73 C423.12,141.12 422.61,141.63 421.95,141.85 C421.29,142.07 420.93,141.71 421.15,141.05 ZM 431.00 139.94 C431.00,139.36 431.45,139.16 432.00,139.50 C432.55,139.84 433.00,140.32 433.00,140.56 C433.00,140.80 432.55,141.00 432.00,141.00 C431.45,141.00 431.00,140.52 431.00,139.94 ZM 187.00 139.00 C187.00,138.45 187.45,138.00 188.00,138.00 C188.55,138.00 189.00,138.45 189.00,139.00 C189.00,139.55 188.55,140.00 188.00,140.00 C187.45,140.00 187.00,139.55 187.00,139.00 ZM 190.55 139.09 C190.23,138.56 190.39,137.87 190.91,137.55 C191.44,137.23 192.13,137.39 192.45,137.91 C192.77,138.44 192.61,139.13 192.09,139.45 C191.56,139.77 190.87,139.61 190.55,139.09 ZM 196.00 139.06 C196.00,138.54 196.45,137.84 197.00,137.50 C197.55,137.16 198.00,137.58 198.00,138.44 C198.00,139.30 197.55,140.00 197.00,140.00 C196.45,140.00 196.00,139.58 196.00,139.06 ZM 426.00 139.00 C426.00,138.45 426.45,138.00 427.00,138.00 C427.55,138.00 428.00,138.45 428.00,139.00 C428.00,139.55 427.55,140.00 427.00,140.00 C426.45,140.00 426.00,139.55 426.00,139.00 ZM 419.58 138.13 C419.15,137.44 419.07,136.60 419.40,136.27 C420.29,135.37 421.27,136.69 420.79,138.14 C420.45,139.15 420.21,139.15 419.58,138.13 ZM 424.00 135.44 C424.00,134.58 424.46,134.16 425.02,134.51 C425.58,134.86 425.77,135.56 425.46,136.07 C424.60,137.46 424.00,137.20 424.00,135.44 ZM 192.51 134.98 C192.86,134.42 193.56,134.23 194.07,134.54 C195.46,135.40 195.20,136.00 193.44,136.00 C192.58,136.00 192.16,135.54 192.51,134.98 ZM 198.50 135.00 C198.84,134.45 199.54,134.00 200.06,134.00 C200.58,134.00 201.00,134.45 201.00,135.00 C201.00,135.55 200.30,136.00 199.44,136.00 C198.58,136.00 198.16,135.55 198.50,135.00 ZM 429.55 135.09 C429.23,134.56 429.39,133.87 429.91,133.55 C430.44,133.23 431.13,133.39 431.45,133.91 C431.77,134.44 431.61,135.13 431.09,135.45 C430.56,135.77 429.87,135.61 429.55,135.09 ZM 417.00 133.50 C417.00,132.58 417.48,131.99 418.08,132.19 C418.67,132.39 419.15,132.98 419.15,133.50 C419.15,134.02 418.67,134.61 418.08,134.81 C417.48,135.01 417.00,134.42 417.00,133.50 ZM 195.55 133.09 C195.23,132.56 195.39,131.87 195.91,131.55 C196.44,131.23 197.13,131.39 197.45,131.91 C197.77,132.44 197.61,133.13 197.09,133.45 C196.56,133.77 195.87,133.61 195.55,133.09 ZM 201.67 132.33 C201.30,131.97 201.00,131.20 201.00,130.63 C201.00,130.01 201.47,130.07 202.18,130.78 C202.83,131.43 203.13,132.20 202.85,132.48 C202.57,132.77 202.03,132.70 201.67,132.33 ZM 420.54 132.07 C420.23,131.56 420.42,130.86 420.98,130.51 C421.54,130.16 422.00,130.58 422.00,131.44 C422.00,133.20 421.40,133.46 420.54,132.07 ZM 414.00 130.00 C414.00,129.45 414.67,129.00 415.50,129.00 C416.33,129.00 417.00,129.45 417.00,130.00 C417.00,130.55 416.33,131.00 415.50,131.00 C414.67,131.00 414.00,130.55 414.00,130.00 ZM 420.00 128.00 C420.00,127.45 420.45,127.00 421.00,127.00 C421.55,127.00 422.00,127.45 422.00,128.00 C422.00,128.55 421.55,129.00 421.00,129.00 C420.45,129.00 420.00,128.55 420.00,128.00 ZM 411.60 127.16 C411.25,126.60 411.45,125.84 412.05,125.47 C413.59,124.52 414.58,125.82 413.30,127.10 C412.58,127.82 412.02,127.84 411.60,127.16 ZM 201.00 124.44 C201.00,123.58 201.46,123.16 202.02,123.51 C202.58,123.86 202.77,124.56 202.46,125.07 C201.60,126.46 201.00,126.20 201.00,124.44 ZM 206.55 125.09 C206.23,124.56 206.39,123.87 206.91,123.55 C207.44,123.23 208.13,123.39 208.45,123.91 C208.77,124.44 208.61,125.13 208.09,125.45 C207.56,125.77 206.87,125.61 206.55,125.09 ZM 415.55 124.09 C415.23,123.56 415.39,122.87 415.91,122.55 C416.44,122.23 417.13,122.39 417.45,122.91 C417.77,123.44 417.61,124.13 417.09,124.45 C416.56,124.77 415.87,124.61 415.55,124.09 ZM 409.00 122.61 C409.00,121.84 408.30,120.94 407.44,120.61 C406.58,120.28 406.15,119.56 406.50,119.01 C407.41,117.53 409.00,117.78 409.00,119.39 C409.00,120.16 409.70,121.06 410.56,121.39 C411.42,121.72 411.85,122.44 411.50,122.99 C410.59,124.47 409.00,124.22 409.00,122.61 ZM 209.00 121.00 C209.00,120.45 209.45,120.00 210.00,120.00 C210.55,120.00 211.00,120.45 211.00,121.00 C211.00,121.55 210.55,122.00 210.00,122.00 C209.45,122.00 209.00,121.55 209.00,121.00 ZM 203.00 120.00 C203.00,119.45 203.45,119.00 204.00,119.00 C204.55,119.00 205.00,119.45 205.00,120.00 C205.00,120.55 204.55,121.00 204.00,121.00 C203.45,121.00 203.00,120.55 203.00,120.00 ZM 412.25 119.50 C410.15,117.12 410.86,115.47 413.00,117.77 C414.10,118.95 415.00,120.16 415.00,120.46 C415.00,121.45 413.51,120.94 412.25,119.50 ZM 423.50 120.00 C423.16,119.45 423.36,119.00 423.94,119.00 C424.52,119.00 425.00,119.45 425.00,120.00 C425.00,120.55 424.80,121.00 424.56,121.00 C424.32,121.00 423.84,120.55 423.50,120.00 ZM 212.00 118.06 C212.00,117.54 212.45,116.84 213.00,116.50 C213.55,116.16 214.00,116.58 214.00,117.44 C214.00,118.30 213.55,119.00 213.00,119.00 C212.45,119.00 212.00,118.58 212.00,118.06 ZM 206.00 117.00 C206.00,116.45 206.45,116.00 207.00,116.00 C207.55,116.00 208.00,116.45 208.00,117.00 C208.00,117.55 207.55,118.00 207.00,118.00 C206.45,118.00 206.00,117.55 206.00,117.00 ZM 200.50 116.00 C200.84,115.45 201.32,115.00 201.56,115.00 C201.80,115.00 202.00,115.45 202.00,116.00 C202.00,116.55 201.52,117.00 200.94,117.00 C200.36,117.00 200.16,116.55 200.50,116.00 ZM 403.19 115.93 C403.39,115.33 403.98,114.85 404.50,114.85 C405.02,114.85 405.61,115.33 405.81,115.93 C406.01,116.52 405.42,117.00 404.50,117.00 C403.58,117.00 402.99,116.52 403.19,115.93 ZM 215.00 114.00 C215.00,113.45 215.45,113.00 216.00,113.00 C216.55,113.00 217.00,113.45 217.00,114.00 C217.00,114.55 216.55,115.00 216.00,115.00 C215.45,115.00 215.00,114.55 215.00,114.00 ZM 400.64 114.31 C399.51,113.18 399.95,112.00 401.50,112.00 C402.33,112.00 403.00,112.42 403.00,112.94 C403.00,114.20 401.44,115.11 400.64,114.31 ZM 209.00 113.00 C209.00,112.45 209.45,112.00 210.00,112.00 C210.55,112.00 211.00,112.45 211.00,113.00 C211.00,113.55 210.55,114.00 210.00,114.00 C209.45,114.00 209.00,113.55 209.00,113.00 ZM 414.00 112.00 C414.00,111.45 414.45,111.00 415.00,111.00 C415.55,111.00 416.00,111.45 416.00,112.00 C416.00,112.55 415.55,113.00 415.00,113.00 C414.45,113.00 414.00,112.55 414.00,112.00 ZM 218.00 111.00 C218.00,110.45 218.45,110.00 219.00,110.00 C219.55,110.00 220.00,110.45 220.00,111.00 C220.00,111.55 219.55,112.00 219.00,112.00 C218.45,112.00 218.00,111.55 218.00,111.00 ZM 213.00 109.94 C213.00,109.36 213.45,109.16 214.00,109.50 C214.55,109.84 215.00,110.32 215.00,110.56 C215.00,110.80 214.55,111.00 214.00,111.00 C213.45,111.00 213.00,110.52 213.00,109.94 ZM 397.00 110.00 C397.00,109.45 397.67,109.00 398.50,109.00 C399.33,109.00 400.00,109.45 400.00,110.00 C400.00,110.55 399.33,111.00 398.50,111.00 C397.67,111.00 397.00,110.55 397.00,110.00 ZM 404.54 110.07 C403.86,108.96 405.44,107.77 406.36,108.69 C407.31,109.64 407.13,111.00 406.06,111.00 C405.54,111.00 404.86,110.58 404.54,110.07 ZM 409.50 109.00 C409.84,108.45 410.32,108.00 410.56,108.00 C410.80,108.00 411.00,108.45 411.00,109.00 C411.00,109.55 410.52,110.00 409.94,110.00 C409.36,110.00 409.16,109.55 409.50,109.00 ZM 221.00 108.00 C221.00,107.45 221.45,107.00 222.00,107.00 C222.55,107.00 223.00,107.45 223.00,108.00 C223.00,108.55 222.55,109.00 222.00,109.00 C221.45,109.00 221.00,108.55 221.00,108.00 ZM 392.74 106.55 C390.85,105.17 390.40,103.00 392.00,103.00 C392.55,103.00 393.00,103.45 393.00,104.00 C393.00,104.55 393.67,105.00 394.50,105.00 C395.33,105.00 396.00,105.42 396.00,105.94 C396.00,107.59 394.53,107.86 392.74,106.55 ZM 407.00 105.94 C407.00,105.36 407.45,105.16 408.00,105.50 C408.55,105.84 409.00,106.32 409.00,106.56 C409.00,106.80 408.55,107.00 408.00,107.00 C407.45,107.00 407.00,106.52 407.00,105.94 ZM 398.54 105.07 C398.23,104.56 398.42,103.86 398.98,103.51 C399.54,103.16 400.00,103.58 400.00,104.44 C400.00,106.20 399.40,106.46 398.54,105.07 ZM 218.50 104.00 C218.16,103.45 218.58,103.00 219.44,103.00 C220.30,103.00 221.00,103.45 221.00,104.00 C221.00,104.55 220.58,105.00 220.06,105.00 C219.54,105.00 218.84,104.55 218.50,104.00 ZM 402.54 103.07 C402.23,102.56 402.42,101.86 402.98,101.51 C403.54,101.16 404.00,101.58 404.00,102.44 C404.00,104.20 403.40,104.46 402.54,103.07 ZM 227.00 102.00 C227.00,101.45 227.45,101.00 228.00,101.00 C228.55,101.00 229.00,101.45 229.00,102.00 C229.00,102.55 228.55,103.00 228.00,103.00 C227.45,103.00 227.00,102.55 227.00,102.00 ZM 387.60 102.16 C387.25,101.60 387.45,100.84 388.05,100.47 C389.59,99.52 390.58,100.82 389.30,102.10 C388.58,102.82 388.02,102.84 387.60,102.16 ZM 394.00 101.00 C394.00,100.45 394.45,100.00 395.00,100.00 C395.55,100.00 396.00,100.45 396.00,101.00 C396.00,101.55 395.55,102.00 395.00,102.00 C394.45,102.00 394.00,101.55 394.00,101.00 ZM 223.00 100.00 C223.00,99.45 223.45,99.00 224.00,99.00 C224.55,99.00 225.00,99.45 225.00,100.00 C225.00,100.55 224.55,101.00 224.00,101.00 C223.45,101.00 223.00,100.55 223.00,100.00 ZM 230.55 100.09 C230.23,99.56 230.39,98.87 230.91,98.55 C231.44,98.23 232.13,98.39 232.45,98.91 C232.77,99.44 232.61,100.13 232.09,100.45 C231.56,100.77 230.87,100.61 230.55,100.09 ZM 383.55 99.09 C383.23,98.56 383.39,97.87 383.91,97.55 C384.44,97.23 385.13,97.39 385.45,97.91 C385.77,98.44 385.61,99.13 385.09,99.45 C384.56,99.77 383.87,99.61 383.55,99.09 ZM 390.54 99.07 C390.23,98.56 390.42,97.86 390.98,97.51 C391.54,97.16 392.00,97.58 392.00,98.44 C392.00,100.20 391.40,100.46 390.54,99.07 ZM 234.50 97.00 C234.16,96.45 234.61,96.00 235.50,96.00 C236.39,96.00 236.84,96.45 236.50,97.00 C236.16,97.55 235.71,98.00 235.50,98.00 C235.29,98.00 234.84,97.55 234.50,97.00 ZM 396.00 97.00 C396.00,96.45 396.45,96.00 397.00,96.00 C397.55,96.00 398.00,96.45 398.00,97.00 C398.00,97.55 397.55,98.00 397.00,98.00 C396.45,98.00 396.00,97.55 396.00,97.00 ZM 229.50 96.00 C229.16,95.45 229.61,95.00 230.50,95.00 C231.39,95.00 231.84,95.45 231.50,96.00 C231.16,96.55 230.71,97.00 230.50,97.00 C230.29,97.00 229.84,96.55 229.50,96.00 ZM 379.58 96.25 C379.17,95.84 378.35,95.50 377.75,95.50 C377.15,95.50 376.48,94.94 376.25,94.25 C376.02,93.56 376.55,93.00 377.42,93.00 C378.29,93.00 379.00,93.45 379.00,94.00 C379.00,94.55 379.67,95.00 380.50,95.00 C381.33,95.00 382.00,95.45 382.00,96.00 C382.00,97.18 380.65,97.32 379.58,96.25 ZM 387.00 95.50 C387.00,94.68 387.45,94.00 388.00,94.00 C388.55,94.00 389.00,94.68 389.00,95.50 C389.00,96.32 388.55,97.00 388.00,97.00 C387.45,97.00 387.00,96.32 387.00,95.50 ZM 239.00 95.00 C239.00,94.45 239.45,94.00 240.00,94.00 C240.55,94.00 241.00,94.45 241.00,95.00 C241.00,95.55 240.55,96.00 240.00,96.00 C239.45,96.00 239.00,95.55 239.00,95.00 ZM 400.00 94.00 C400.00,93.45 400.45,93.00 401.00,93.00 C401.55,93.00 402.00,93.45 402.00,94.00 C402.00,94.55 401.55,95.00 401.00,95.00 C400.45,95.00 400.00,94.55 400.00,94.00 ZM 233.47 92.95 C232.52,91.41 233.82,90.42 235.10,91.70 C235.82,92.42 235.84,92.98 235.16,93.40 C234.60,93.75 233.84,93.55 233.47,92.95 ZM 242.00 93.06 C242.00,92.54 242.45,91.84 243.00,91.50 C243.55,91.16 244.00,91.58 244.00,92.44 C244.00,93.30 243.55,94.00 243.00,94.00 C242.45,94.00 242.00,93.58 242.00,93.06 ZM 372.19 91.93 C372.39,91.33 372.98,90.85 373.50,90.85 C374.02,90.85 374.61,91.33 374.81,91.93 C375.01,92.52 374.42,93.00 373.50,93.00 C372.58,93.00 371.99,92.52 372.19,91.93 ZM 383.00 92.00 C383.00,91.45 383.45,91.00 384.00,91.00 C384.55,91.00 385.00,91.45 385.00,92.00 C385.00,92.55 384.55,93.00 384.00,93.00 C383.45,93.00 383.00,92.55 383.00,92.00 ZM 229.00 90.94 C229.00,90.36 229.45,90.16 230.00,90.50 C230.55,90.84 231.00,91.32 231.00,91.56 C231.00,91.80 230.55,92.00 230.00,92.00 C229.45,92.00 229.00,91.52 229.00,90.94 ZM 237.50 91.00 C237.16,90.45 237.36,90.00 237.94,90.00 C238.52,90.00 239.00,90.45 239.00,91.00 C239.00,91.55 238.80,92.00 238.56,92.00 C238.32,92.00 237.84,91.55 237.50,91.00 ZM 246.00 90.44 C246.00,89.58 246.45,89.16 247.00,89.50 C247.55,89.84 248.00,90.54 248.00,91.06 C248.00,91.58 247.55,92.00 247.00,92.00 C246.45,92.00 246.00,91.30 246.00,90.44 ZM 368.00 89.50 C368.00,88.68 368.45,88.00 369.00,88.00 C369.55,88.00 370.00,88.68 370.00,89.50 C370.00,90.32 369.55,91.00 369.00,91.00 C368.45,91.00 368.00,90.32 368.00,89.50 ZM 380.00 90.00 C380.00,89.45 380.45,89.00 381.00,89.00 C381.55,89.00 382.00,89.45 382.00,90.00 C382.00,90.55 381.55,91.00 381.00,91.00 C380.45,91.00 380.00,90.55 380.00,90.00 ZM 233.00 87.94 C233.00,87.36 233.45,87.16 234.00,87.50 C234.55,87.84 235.00,88.32 235.00,88.56 C235.00,88.80 234.55,89.00 234.00,89.00 C233.45,89.00 233.00,88.52 233.00,87.94 ZM 249.50 88.00 C249.84,87.45 250.54,87.00 251.06,87.00 C251.58,87.00 252.00,87.45 252.00,88.00 C252.00,88.55 251.30,89.00 250.44,89.00 C249.58,89.00 249.16,88.55 249.50,88.00 ZM 364.60 88.16 C364.25,87.60 364.45,86.84 365.05,86.47 C366.59,85.52 367.58,86.82 366.30,88.10 C365.58,88.82 365.02,88.84 364.60,88.16 ZM 376.50 88.00 C376.16,87.45 376.36,87.00 376.94,87.00 C377.52,87.00 378.00,87.45 378.00,88.00 C378.00,88.55 377.80,89.00 377.56,89.00 C377.32,89.00 376.84,88.55 376.50,88.00 ZM 246.00 86.00 C246.00,85.45 246.48,85.00 247.06,85.00 C247.64,85.00 247.84,85.45 247.50,86.00 C247.16,86.55 246.68,87.00 246.44,87.00 C246.20,87.00 246.00,86.55 246.00,86.00 ZM 254.00 86.00 C254.00,85.45 254.45,85.00 255.00,85.00 C255.55,85.00 256.00,85.45 256.00,86.00 C256.00,86.55 255.55,87.00 255.00,87.00 C254.45,87.00 254.00,86.55 254.00,86.00 ZM 258.00 84.50 C258.00,83.68 258.45,83.00 259.00,83.00 C259.55,83.00 260.00,83.68 260.00,84.50 C260.00,85.32 259.55,86.00 259.00,86.00 C258.45,86.00 258.00,85.32 258.00,84.50 ZM 359.25 85.29 C356.76,84.81 356.12,82.00 358.50,82.00 C359.33,82.00 360.00,82.45 360.00,83.00 C360.00,83.55 360.67,84.00 361.50,84.00 C362.33,84.00 363.00,84.45 363.00,85.00 C363.00,85.55 362.66,85.94 362.25,85.86 C361.84,85.79 360.49,85.53 359.25,85.29 ZM 371.00 85.00 C371.00,84.45 371.67,84.00 372.50,84.00 C373.33,84.00 374.00,84.45 374.00,85.00 C374.00,85.55 373.33,86.00 372.50,86.00 C371.67,86.00 371.00,85.55 371.00,85.00 ZM 249.62 84.20 C249.25,83.60 249.83,82.63 250.91,82.05 C253.42,80.71 254.00,80.73 254.00,82.17 C254.00,82.81 253.71,83.04 253.35,82.68 C252.99,82.32 252.16,82.77 251.50,83.67 C250.70,84.77 250.08,84.94 249.62,84.20 ZM 367.00 84.00 C367.00,83.45 367.67,83.00 368.50,83.00 C369.33,83.00 370.00,83.45 370.00,84.00 C370.00,84.55 369.33,85.00 368.50,85.00 C367.67,85.00 367.00,84.55 367.00,84.00 ZM 263.00 83.00 C263.00,82.45 263.45,82.00 264.00,82.00 C264.55,82.00 265.00,82.45 265.00,83.00 C265.00,83.55 264.55,84.00 264.00,84.00 C263.45,84.00 263.00,83.55 263.00,83.00 ZM 353.00 82.50 C353.00,81.68 353.45,81.00 354.00,81.00 C354.55,81.00 355.00,81.68 355.00,82.50 C355.00,83.32 354.55,84.00 354.00,84.00 C353.45,84.00 353.00,83.32 353.00,82.50 ZM 267.00 82.00 C267.00,81.45 267.45,81.00 268.00,81.00 C268.55,81.00 269.00,81.45 269.00,82.00 C269.00,82.55 268.55,83.00 268.00,83.00 C267.45,83.00 267.00,82.55 267.00,82.00 ZM 271.00 80.50 C271.00,79.68 271.45,79.00 272.00,79.00 C272.55,79.00 273.00,79.68 273.00,80.50 C273.00,81.32 272.55,82.00 272.00,82.00 C271.45,82.00 271.00,81.32 271.00,80.50 ZM 348.00 80.50 C348.00,79.58 348.48,78.99 349.08,79.19 C349.67,79.39 350.15,79.98 350.15,80.50 C350.15,81.02 349.67,81.61 349.08,81.81 C348.48,82.01 348.00,81.42 348.00,80.50 ZM 363.00 80.44 C363.00,79.58 363.45,79.16 364.00,79.50 C364.55,79.84 365.00,80.54 365.00,81.06 C365.00,81.58 364.55,82.00 364.00,82.00 C363.45,82.00 363.00,81.30 363.00,80.44 ZM 382.00 81.00 C382.00,80.45 382.45,80.00 383.00,80.00 C383.55,80.00 384.00,80.45 384.00,81.00 C384.00,81.55 383.55,82.00 383.00,82.00 C382.45,82.00 382.00,81.55 382.00,81.00 ZM 258.00 80.00 C258.00,79.45 258.45,79.00 259.00,79.00 C259.55,79.00 260.00,79.45 260.00,80.00 C260.00,80.55 259.55,81.00 259.00,81.00 C258.45,81.00 258.00,80.55 258.00,80.00 ZM 274.47 79.95 C273.52,78.41 274.82,77.42 276.10,78.70 C276.82,79.42 276.84,79.98 276.16,80.40 C275.60,80.75 274.84,80.55 274.47,79.95 ZM 344.64 80.31 C343.51,79.18 343.95,78.00 345.50,78.00 C346.33,78.00 347.00,78.42 347.00,78.94 C347.00,80.20 345.44,81.11 344.64,80.31 ZM 372.00 79.94 C372.00,79.36 372.45,79.16 373.00,79.50 C373.55,79.84 374.00,80.32 374.00,80.56 C374.00,80.80 373.55,81.00 373.00,81.00 C372.45,81.00 372.00,80.52 372.00,79.94 ZM 340.00 78.58 C340.00,77.71 340.71,77.00 341.58,77.00 C343.35,77.00 343.04,79.15 341.19,79.77 C340.53,79.99 340.00,79.45 340.00,78.58 ZM 354.54 79.07 C354.23,78.56 354.42,77.86 354.98,77.51 C355.54,77.16 356.00,77.58 356.00,78.44 C356.00,80.20 355.40,80.46 354.54,79.07 ZM 359.00 79.00 C359.00,78.45 359.45,78.00 360.00,78.00 C360.55,78.00 361.00,78.45 361.00,79.00 C361.00,79.55 360.55,80.00 360.00,80.00 C359.45,80.00 359.00,79.55 359.00,79.00 ZM 249.00 78.00 C249.00,77.45 249.48,77.00 250.06,77.00 C250.64,77.00 250.84,77.45 250.50,78.00 C250.16,78.55 249.68,79.00 249.44,79.00 C249.20,79.00 249.00,78.55 249.00,78.00 ZM 278.00 78.00 C278.00,77.45 278.67,77.00 279.50,77.00 C280.33,77.00 281.00,77.45 281.00,78.00 C281.00,78.55 280.33,79.00 279.50,79.00 C278.67,79.00 278.00,78.55 278.00,78.00 ZM 369.00 78.00 C369.00,77.45 369.45,77.00 370.00,77.00 C370.55,77.00 371.00,77.45 371.00,78.00 C371.00,78.55 370.55,79.00 370.00,79.00 C369.45,79.00 369.00,78.55 369.00,78.00 ZM 265.50 77.00 C265.84,76.45 266.32,76.00 266.56,76.00 C266.80,76.00 267.00,76.45 267.00,77.00 C267.00,77.55 266.52,78.00 265.94,78.00 C265.36,78.00 265.16,77.55 265.50,77.00 ZM 283.00 77.00 C283.00,76.45 283.45,76.00 284.00,76.00 C284.55,76.00 285.00,76.45 285.00,77.00 C285.00,77.55 284.55,78.00 284.00,78.00 C283.45,78.00 283.00,77.55 283.00,77.00 ZM 287.58 77.13 C287.15,76.44 287.07,75.60 287.40,75.27 C288.29,74.37 289.27,75.69 288.79,77.14 C288.45,78.15 288.21,78.15 287.58,77.13 ZM 330.67 77.33 C329.52,76.18 329.94,75.00 331.50,75.00 C332.33,75.00 333.00,75.68 333.00,76.50 C333.00,78.06 331.82,78.48 330.67,77.33 ZM 335.00 76.42 C335.00,75.55 335.53,75.01 336.19,75.23 C338.04,75.85 338.35,78.00 336.58,78.00 C335.71,78.00 335.00,77.29 335.00,76.42 ZM 363.50 77.00 C363.16,76.45 363.61,76.00 364.50,76.00 C365.39,76.00 365.84,76.45 365.50,77.00 C365.16,77.55 364.71,78.00 364.50,78.00 C364.29,78.00 363.84,77.55 363.50,77.00 ZM 253.00 75.94 C253.00,75.36 253.45,75.16 254.00,75.50 C254.55,75.84 255.00,76.32 255.00,76.56 C255.00,76.80 254.55,77.00 254.00,77.00 C253.45,77.00 253.00,76.52 253.00,75.94 ZM 291.64 76.31 C290.51,75.18 290.95,74.00 292.50,74.00 C293.33,74.00 294.00,74.42 294.00,74.94 C294.00,76.20 292.44,77.11 291.64,76.31 ZM 326.19 75.93 C326.39,75.33 326.98,74.85 327.50,74.85 C328.02,74.85 328.61,75.33 328.81,75.93 C329.01,76.52 328.42,77.00 327.50,77.00 C326.58,77.00 325.99,76.52 326.19,75.93 ZM 346.67 76.33 C345.52,75.18 345.94,74.00 347.50,74.00 C348.33,74.00 349.00,74.68 349.00,75.50 C349.00,77.06 347.82,77.48 346.67,76.33 ZM 350.00 76.00 C350.00,75.45 350.70,75.00 351.56,75.00 C352.42,75.00 352.84,75.45 352.50,76.00 C352.16,76.55 351.46,77.00 350.94,77.00 C350.42,77.00 350.00,76.55 350.00,76.00 ZM 258.50 75.00 C258.16,74.45 258.36,74.00 258.94,74.00 C259.52,74.00 260.00,74.45 260.00,75.00 C260.00,75.55 259.80,76.00 259.56,76.00 C259.32,76.00 258.84,75.55 258.50,75.00 ZM 270.00 75.00 C270.00,74.45 270.42,74.00 270.94,74.00 C271.46,74.00 272.16,74.45 272.50,75.00 C272.84,75.55 272.42,76.00 271.56,76.00 C270.70,76.00 270.00,75.55 270.00,75.00 ZM 296.00 75.00 C296.00,74.45 296.45,74.00 297.00,74.00 C297.55,74.00 298.00,74.45 298.00,75.00 C298.00,75.55 297.55,76.00 297.00,76.00 C296.45,76.00 296.00,75.55 296.00,75.00 ZM 301.00 74.50 C301.00,73.68 301.45,73.00 302.00,73.00 C302.55,73.00 303.00,73.68 303.00,74.50 C303.00,75.32 302.55,76.00 302.00,76.00 C301.45,76.00 301.00,75.32 301.00,74.50 ZM 305.00 74.56 C305.00,73.70 305.45,73.00 306.00,73.00 C306.55,73.00 307.00,73.42 307.00,73.94 C307.00,74.46 306.55,75.16 306.00,75.50 C305.45,75.84 305.00,75.42 305.00,74.56 ZM 318.00 75.00 C318.00,74.45 318.45,74.00 319.00,74.00 C319.55,74.00 320.00,74.45 320.00,75.00 C320.00,75.55 319.55,76.00 319.00,76.00 C318.45,76.00 318.00,75.55 318.00,75.00 ZM 322.00 75.00 C322.00,74.45 322.45,74.00 323.00,74.00 C323.55,74.00 324.00,74.45 324.00,75.00 C324.00,75.55 323.55,76.00 323.00,76.00 C322.45,76.00 322.00,75.55 322.00,75.00 ZM 359.54 75.07 C359.23,74.56 359.42,73.86 359.98,73.51 C360.54,73.16 361.00,73.58 361.00,74.44 C361.00,76.20 360.40,76.46 359.54,75.07 ZM 309.00 74.00 C309.00,73.45 309.42,73.00 309.94,73.00 C310.46,73.00 311.16,73.45 311.50,74.00 C311.84,74.55 311.42,75.00 310.56,75.00 C309.70,75.00 309.00,74.55 309.00,74.00 ZM 313.00 74.00 C313.00,73.45 313.45,73.00 314.00,73.00 C314.55,73.00 315.00,73.45 315.00,74.00 C315.00,74.55 314.55,75.00 314.00,75.00 C313.45,75.00 313.00,74.55 313.00,74.00 ZM 278.58 73.13 C278.15,72.44 278.07,71.60 278.40,71.27 C279.29,70.37 280.27,71.69 279.79,73.14 C279.45,74.15 279.21,74.15 278.58,73.13 ZM 338.00 73.00 C338.00,72.45 338.45,72.00 339.00,72.00 C339.55,72.00 340.00,72.45 340.00,73.00 C340.00,73.55 339.55,74.00 339.00,74.00 C338.45,74.00 338.00,73.55 338.00,73.00 ZM 342.50 73.00 C342.84,72.45 343.54,72.00 344.06,72.00 C344.58,72.00 345.00,72.45 345.00,73.00 C345.00,73.55 344.30,74.00 343.44,74.00 C342.58,74.00 342.16,73.55 342.50,73.00 ZM 354.00 73.00 C354.00,72.45 354.45,72.00 355.00,72.00 C355.55,72.00 356.00,72.45 356.00,73.00 C356.00,73.55 355.55,74.00 355.00,74.00 C354.45,74.00 354.00,73.55 354.00,73.00 ZM 288.00 72.00 C288.00,71.45 288.45,71.00 289.00,71.00 C289.55,71.00 290.00,71.45 290.00,72.00 C290.00,72.55 289.55,73.00 289.00,73.00 C288.45,73.00 288.00,72.55 288.00,72.00 ZM 332.51 71.98 C332.86,71.42 333.56,71.23 334.07,71.54 C335.46,72.40 335.20,73.00 333.44,73.00 C332.58,73.00 332.16,72.54 332.51,71.98 ZM 283.50 71.00 C283.84,70.45 284.32,70.00 284.56,70.00 C284.80,70.00 285.00,70.45 285.00,71.00 C285.00,71.55 284.52,72.00 283.94,72.00 C283.36,72.00 283.16,71.55 283.50,71.00 ZM 325.00 71.00 C325.00,70.45 325.45,70.00 326.00,70.00 C326.55,70.00 327.00,70.45 327.00,71.00 C327.00,71.55 326.55,72.00 326.00,72.00 C325.45,72.00 325.00,71.55 325.00,71.00 ZM 329.00 71.00 C329.00,70.45 329.45,70.00 330.00,70.00 C330.55,70.00 331.00,70.45 331.00,71.00 C331.00,71.55 330.55,72.00 330.00,72.00 C329.45,72.00 329.00,71.55 329.00,71.00 ZM 350.00 71.00 C350.00,70.45 350.45,70.00 351.00,70.00 C351.55,70.00 352.00,70.45 352.00,71.00 C352.00,71.55 351.55,72.00 351.00,72.00 C350.45,72.00 350.00,71.55 350.00,71.00 ZM 292.00 70.06 C292.00,69.54 292.45,68.84 293.00,68.50 C293.55,68.16 294.00,68.58 294.00,69.44 C294.00,70.30 293.55,71.00 293.00,71.00 C292.45,71.00 292.00,70.58 292.00,70.06 ZM 297.50 70.00 C297.84,69.45 298.32,69.00 298.56,69.00 C298.80,69.00 299.00,69.45 299.00,70.00 C299.00,70.55 298.52,71.00 297.94,71.00 C297.36,71.00 297.16,70.55 297.50,70.00 ZM 302.00 70.00 C302.00,69.45 302.45,69.00 303.00,69.00 C303.55,69.00 304.00,69.45 304.00,70.00 C304.00,70.55 303.55,71.00 303.00,71.00 C302.45,71.00 302.00,70.55 302.00,70.00 ZM 306.00 70.00 C306.00,69.45 306.45,69.00 307.00,69.00 C307.55,69.00 308.00,69.45 308.00,70.00 C308.00,70.55 307.55,71.00 307.00,71.00 C306.45,71.00 306.00,70.55 306.00,70.00 ZM 311.00 70.00 C311.00,69.45 311.45,69.00 312.00,69.00 C312.55,69.00 313.00,69.45 313.00,70.00 C313.00,70.55 312.55,71.00 312.00,71.00 C311.45,71.00 311.00,70.55 311.00,70.00 ZM 320.00 70.00 C320.00,69.45 320.48,69.00 321.06,69.00 C321.64,69.00 321.84,69.45 321.50,70.00 C321.16,70.55 320.68,71.00 320.44,71.00 C320.20,71.00 320.00,70.55 320.00,70.00 ZM 345.00 69.94 C345.00,69.36 345.45,69.16 346.00,69.50 C346.55,69.84 347.00,70.32 347.00,70.56 C347.00,70.80 346.55,71.00 346.00,71.00 C345.45,71.00 345.00,70.52 345.00,69.94 ZM 360.00 70.00 C360.00,69.45 360.45,69.00 361.00,69.00 C361.55,69.00 362.00,69.45 362.00,70.00 C362.00,70.55 361.55,71.00 361.00,71.00 C360.45,71.00 360.00,70.55 360.00,70.00 ZM 315.00 69.00 C315.00,68.45 315.45,68.00 316.00,68.00 C316.55,68.00 317.00,68.45 317.00,69.00 C317.00,69.55 316.55,70.00 316.00,70.00 C315.45,70.00 315.00,69.55 315.00,69.00 ZM 341.00 69.00 C341.00,68.45 341.48,68.00 342.06,68.00 C342.64,68.00 342.84,68.45 342.50,69.00 C342.16,69.55 341.68,70.00 341.44,70.00 C341.20,70.00 341.00,69.55 341.00,69.00 ZM 281.00 67.00 C281.00,66.45 281.48,66.00 282.06,66.00 C282.64,66.00 282.84,66.45 282.50,67.00 C282.16,67.55 281.68,68.00 281.44,68.00 C281.20,68.00 281.00,67.55 281.00,67.00 ZM 327.00 67.00 C327.00,66.45 327.45,66.00 328.00,66.00 C328.55,66.00 329.00,66.45 329.00,67.00 C329.00,67.55 328.55,68.00 328.00,68.00 C327.45,68.00 327.00,67.55 327.00,67.00 ZM 355.50 67.00 C355.84,66.45 356.32,66.00 356.56,66.00 C356.80,66.00 357.00,66.45 357.00,67.00 C357.00,67.55 356.52,68.00 355.94,68.00 C355.36,68.00 355.16,67.55 355.50,67.00 ZM 332.50 66.00 C332.16,65.45 332.36,65.00 332.94,65.00 C333.52,65.00 334.00,65.45 334.00,66.00 C334.00,66.55 333.80,67.00 333.56,67.00 C333.32,67.00 332.84,66.55 332.50,66.00 ZM 290.00 64.94 C290.00,64.36 290.45,64.16 291.00,64.50 C291.55,64.84 292.00,65.32 292.00,65.56 C292.00,65.80 291.55,66.00 291.00,66.00 C290.45,66.00 290.00,65.52 290.00,64.94 ZM 295.00 64.94 C295.00,64.36 295.45,64.16 296.00,64.50 C296.55,64.84 297.00,65.32 297.00,65.56 C297.00,65.80 296.55,66.00 296.00,66.00 C295.45,66.00 295.00,65.52 295.00,64.94 ZM 322.50 64.00 C322.84,63.45 323.32,63.00 323.56,63.00 C323.80,63.00 324.00,63.45 324.00,64.00 C324.00,64.55 323.52,65.00 322.94,65.00 C322.36,65.00 322.16,64.55 322.50,64.00 Z" fill="rgba(0,0,0,1)"/>
</g>
</svg>